<svg width="320" height="327" viewBox="0 0 320 327" fill="none" xmlns="http://www.w3.org/2000/svg">
<path d="M89.082 94.1797C89.082 94.1797 122.922 37.8361 190.566 59.8861C258.102 81.9397 242.143 165.658 242.1 165.877C242.395 164.344 254.095 162.882 255.334 162.702C289.847 157.601 315.518 189.702 318.064 221.339C321.224 260.579 290.873 288.371 256.306 300.337" stroke="#C2EFFF" stroke-width="2" stroke-miterlimit="10"/>
<path d="M251.848 318.748C250.825 322.344 250.084 324.4 250.084 324.4H249.551C250.393 322.566 251.159 320.682 251.848 318.748Z" fill="#005B7B"/>
<path d="M157.687 176.803C157.687 176.803 156.47 184.19 155.21 190.879C151.61 190.919 148.01 190.947 144.45 190.976C142.65 180.846 144.604 172.911 146.927 167.623C149.853 174.297 154.274 176.328 157.687 176.803Z" fill="#0098CD"/>
<path d="M216.855 203.457C209.535 199.516 201.733 196.545 193.646 194.619L190.996 194.162C190.996 194.162 189.023 189.677 189.012 189.662C188.087 187.311 186.554 184.19 186.078 181.713C185.499 178.788 185.359 175.792 185.661 172.825C186.179 168.419 188.231 159.098 191.939 156.161C195.032 153.727 196.306 154.238 198.059 150.433C199.319 147.719 199.83 143.157 197.382 141.156C194.668 138.96 193.509 140.076 190.262 140.414C177.921 141.638 170.868 132.757 166.332 122.493C165.612 120.827 164.864 119.066 163.686 117.648C162.336 116.013 160.468 115.646 158.938 114.325C158.286 113.756 157.84 112.827 158.153 112.021C158.338 111.635 158.606 111.296 158.938 111.027C161.829 108.364 165.302 106.41 169.079 105.321C175.054 103.594 181.368 103.397 187.439 104.749C193.775 106.848 199.47 110.822 203.304 116.895C208.593 125.287 209.867 133.992 206.904 142.668C203.87 151.553 200.482 161.989 206.184 170.539C213.777 181.897 218.352 189.885 216.855 203.457Z" fill="#0098CD"/>
<path d="M155.221 190.879C151.621 190.919 148.021 190.947 144.461 190.976C117.331 191.117 91.3644 190.739 64.1484 195.62" stroke="#001E29" stroke-width="2" stroke-miterlimit="10"/>
<path d="M190.566 193.899C191.6 194.126 192.622 194.364 193.644 194.619C197.63 195.583 201.554 196.785 205.395 198.219C209.335 199.686 213.165 201.435 216.854 203.454C216.858 203.45 216.863 203.448 216.868 203.448C216.873 203.448 216.878 203.45 216.882 203.454C222.685 206.598 228.049 210.493 232.834 215.039C236.835 218.937 240.294 223.355 243.119 228.175C243.144 228.193 243.162 228.218 243.173 228.247C245.465 232.094 247.454 236.113 249.124 240.267C254.106 252.54 256.932 266.67 257.364 280.731C257.757 294.012 256.007 307.235 251.867 318.747C251.178 320.682 250.413 322.566 249.57 324.399C249.516 324.54 249.444 324.666 249.39 324.806" stroke="#001E29" stroke-width="2" stroke-miterlimit="10"/>
<path d="M206.207 324.626C206.207 324.626 206.207 324.597 206.207 324.583C206.23 324.523 206.248 324.462 206.261 324.399" stroke="#001E29" stroke-width="2" stroke-miterlimit="10"/>
<path d="M196.707 243.669C196.707 243.669 204.541 247.475 209.689 259.355C212.277 265.327 214.196 273.359 214.084 283.979C214.084 283.979 214.084 283.979 214.084 284.007C214.027 290.779 213.134 298.598 211.06 307.609V307.659" stroke="#001E29" stroke-width="2" stroke-miterlimit="10"/>
<path d="M48.457 92.8511C49.8394 87.6203 52.057 82.2275 53.7238 79.9595C56.3446 76.4315 59.7646 73.0691 64.1638 73.3715C66.9898 73.5551 69.7654 75.1175 69.8914 78.2135C70.0102 81.5723 66.4678 85.3019 65.3302 88.4591C64.2502 91.5047 63.757 95.0507 64.3258 98.2547C64.8946 101.459 67.771 103.961 70.8742 104.648C72.0514 104.958 73.3032 104.789 74.3554 104.177C77.3938 102.254 76.7566 97.1351 76.6342 94.1147C76.4902 90.7271 76.4938 86.8967 79.3846 84.5783C81.5086 82.8755 84.7306 84.0059 86.2966 85.8779C89.0182 89.1179 89.1514 93.9959 89.2882 97.9847C89.695 110.002 87.5602 121.522 80.5618 131.638C76.9618 136.861 73.2538 141.548 71.7958 147.956C67.2598 167.872 66.7558 181.677 64.1494 201.902" stroke="#001E29" stroke-width="2" stroke-miterlimit="10"/>
<path d="M119.1 324.939C105.189 285.404 111.777 242.211 111.777 242.211L37.0556 244.58C33.8743 244.681 30.7084 244.098 27.7712 242.872C24.8339 241.646 22.1933 239.804 20.0279 237.472C17.8622 235.139 16.2217 232.369 15.217 229.349C14.2122 226.329 13.8664 223.128 14.203 219.963L32.5052 153.219L36.4652 138.981C37.7281 134.501 37.439 129.726 35.6444 125.431L33.7796 120.981C33.7796 120.981 30.3992 114.087 37.9772 114.735C42.0524 115.095 46.0952 116.827 49.5152 119.001C52.2008 120.711 56.2976 124.02 55.0304 127.688C53.5328 132.008 47.6612 133.088 44.2124 130.658" stroke="#001E29" stroke-width="2" stroke-miterlimit="10"/>
<path d="M35.4582 114.699C35.4582 114.699 29.0574 100.299 46.6182 104.025C64.179 107.751 68.3838 126.939 54.981 124.779" stroke="#001E29" stroke-width="2" stroke-miterlimit="10"/>
<path d="M41.2454 103.201C41.2454 103.201 35.6294 96.3792 44.0246 93.1212C52.4198 89.8632 82.9046 105.25 63.3494 120.406" stroke="#001E29" stroke-width="2" stroke-miterlimit="10"/>
<path d="M162.727 176.479C161.097 176.926 159.393 177.037 157.719 176.803C154.292 176.328 149.871 174.283 146.959 167.623C146.354 166.262 145.862 164.853 145.49 163.411C144.007 157.9 143.359 150.232 144.226 139.54C144.395 137.484 144.647 135.396 144.997 133.312C145.575 129.686 146.507 126.125 147.779 122.681C147.779 122.681 147.779 122.652 147.808 122.638C150.983 114.242 156.567 107.158 165.956 104.432C172.997 102.401 180.483 102.509 187.462 104.742C193.798 106.841 199.493 110.815 203.327 116.888C208.616 125.28 209.89 133.985 206.927 142.661C203.893 151.546 200.505 161.982 206.207 170.532C213.789 181.908 218.365 189.896 216.896 203.468" stroke="#001E29" stroke-width="2" stroke-miterlimit="10"/>
<path d="M141.58 191.398C138.823 178.175 142.545 168.534 145.468 163.411" stroke="#001E29" stroke-width="2" stroke-miterlimit="10"/>
<path d="M144.996 133.297C144.996 133.297 151.033 126.986 158.028 136.955" stroke="#001E29" stroke-width="2" stroke-miterlimit="10"/>
<path d="M160.368 165.074C162.92 166.727 166.376 165.701 168.255 163.156C170.297 160.394 171.114 156.708 171.557 153.364C171.585 153.122 171.618 152.885 171.639 152.644C168.525 157.536 162.481 158.71 157.16 159.221C157.362 160.821 157.957 162.346 158.892 163.66C159.292 164.219 159.792 164.698 160.368 165.074Z" stroke="#001E29" stroke-width="2" stroke-linecap="round" stroke-linejoin="round"/>
<path d="M188.093 187.099L188.078 187.084" stroke="#001E29" stroke-width="2" stroke-miterlimit="10"/>
<path d="M164.34 131.357C164.34 131.357 166.392 128.034 173.405 130.482C180.417 132.93 180.5 136.929 180.5 136.929" stroke="#001E29" stroke-width="2" stroke-miterlimit="10"/>
<path d="M148.402 139.619C148.402 139.619 151.642 137.981 154.18 139.619" stroke="#001E29" stroke-width="2" stroke-miterlimit="10"/>
<path d="M165.859 141.127C165.859 141.127 169.099 139.489 171.619 141.127" stroke="#001E29" stroke-width="2" stroke-miterlimit="10"/>
<path d="M157.683 176.803C157.683 176.803 156.467 184.19 155.207 190.879C155.023 191.829 154.847 192.765 154.688 193.69C153.864 198.194 153.205 202.197 153.176 203.41C152.967 213.49 162.497 219.304 171.702 219.207C184.619 219.067 192.171 207.05 190.955 195.015C190.159 192.819 189.345 190.623 188.55 188.427C187.527 185.612 186.199 182.872 185.623 179.906C185.114 176.984 185.059 174 185.457 171.061C185.976 166.669 186.829 160.12 190.537 157.183C193.629 154.749 196.859 153.151 198.623 149.346C199.883 146.631 199.825 143.136 197.377 141.134C194.663 138.938 190.368 139.204 187.121 139.525C166.176 141.667 162.691 120.466 157.025 117.489C152.381 115.038 148.896 120.538 147.805 122.58L147.762 122.666C147.76 122.687 147.751 122.706 147.737 122.72C147.539 123.08 147.441 123.321 147.441 123.321" stroke="#001E29" stroke-width="2" stroke-miterlimit="10"/>
<path d="M157.15 142.06C157.15 142.06 154.961 149.224 155.13 150.296C155.3 151.369 157.852 150.62 157.852 150.62" stroke="#001E29" stroke-width="2" stroke-miterlimit="10"/>
<path d="M174.298 149.62C177.651 146.273 177.59 140.775 174.161 137.34C170.732 133.905 165.235 133.834 161.882 137.182C158.528 140.529 158.59 146.027 162.018 149.462C165.447 152.897 170.945 152.968 174.298 149.62Z" stroke="#001E29" stroke-width="2" stroke-miterlimit="10"/>
<path d="M152.416 146.96C155.769 143.613 155.707 138.115 152.278 134.68C148.85 131.245 143.352 131.174 139.999 134.521C136.645 137.869 136.707 143.367 140.136 146.801C143.565 150.236 149.062 150.307 152.416 146.96Z" stroke="#001E29" stroke-width="2" stroke-miterlimit="10"/>
<path d="M146.019 134.071C146.975 134.067 147.921 134.263 148.796 134.647C149.672 135.03 150.457 135.593 151.101 136.299C151.746 137.005 152.235 137.838 152.538 138.745C152.841 139.651 152.95 140.611 152.859 141.563C152.707 143.163 151.963 144.648 150.772 145.727C149.581 146.806 148.029 147.401 146.422 147.395C145.466 147.399 144.52 147.203 143.645 146.82C142.769 146.436 141.984 145.873 141.34 145.167C140.696 144.461 140.206 143.628 139.903 142.721C139.6 141.815 139.491 140.855 139.582 139.903C139.734 138.303 140.478 136.818 141.67 135.739C142.861 134.66 144.412 134.065 146.019 134.071ZM146.019 133.078C144.167 133.073 142.38 133.761 141.009 135.005C139.637 136.25 138.781 137.962 138.607 139.806C138.421 141.841 139.034 143.869 140.317 145.46C141.599 147.051 143.451 148.08 145.479 148.331C145.79 148.368 146.102 148.387 146.415 148.388C148.269 148.396 150.058 147.71 151.432 146.464C152.806 145.219 153.664 143.506 153.838 141.66C154.024 139.625 153.41 137.597 152.128 136.006C150.845 134.415 148.994 133.386 146.966 133.135C146.655 133.098 146.343 133.079 146.03 133.078H146.019Z" fill="white"/>
<path d="M159.445 142.344L154.852 141.786" stroke="#001E29" stroke-width="2" stroke-miterlimit="10"/>
<path d="M173.594 148.914C176.567 145.946 176.513 141.071 173.473 138.027C170.433 134.981 165.559 134.919 162.586 137.887C159.613 140.855 159.667 145.73 162.706 148.775C165.746 151.82 170.62 151.882 173.594 148.914Z" fill="#0098CD"/>
<path d="M151.713 146.256C154.687 143.287 154.634 138.41 151.592 135.364C148.551 132.317 143.675 132.255 140.7 135.224C137.726 138.194 137.779 143.071 140.82 146.117C143.861 149.164 148.738 149.226 151.713 146.256Z" fill="#0098CD"/>
<path d="M76.0151 21.1572C65.5751 21.69 56.9351 30.0564 56.1035 40.4676C55.8554 43.3725 56.2151 46.2971 57.1597 49.0554C58.104 51.8134 59.6131 54.3446 61.5899 56.4876C63.0475 58.0911 64.7482 59.4555 66.6299 60.5304C67.1206 60.8138 67.5846 61.1414 68.0159 61.5096C70.8332 62.932 73.9443 63.6754 77.1005 63.6804C80.2566 63.6855 83.3702 62.9518 86.1923 61.5384C86.6027 61.1572 87.0584 60.8285 87.5495 60.5592C89.5079 59.4393 91.278 58.0177 92.7947 56.3472C92.8332 56.2929 92.8753 56.241 92.9207 56.1924C95.6711 53.0788 97.4412 49.2225 98.0089 45.107C98.5766 40.9918 97.9164 36.8003 96.1114 33.0585C94.306 29.3166 91.4364 26.1911 87.8619 24.074C84.2875 21.9568 80.1673 20.942 76.0187 21.1572H76.0151ZM89.0831 54.1368C89.0431 54.1667 89.01 54.2049 88.9859 54.2484C87.8105 55.5333 86.4417 56.6266 84.9287 57.4884C84.5521 57.6947 84.2036 57.9489 83.8919 58.2444C81.7157 59.3334 79.3159 59.9004 76.8827 59.9004C74.4491 59.9004 72.0493 59.3334 69.8735 58.2444C69.5361 57.9568 69.1751 57.699 68.7935 57.474C65.8857 55.8015 63.5663 53.2707 62.154 50.228C60.7417 47.1856 60.305 43.7807 60.9044 40.4803C61.5035 37.1798 63.1091 34.1457 65.5009 31.7938C67.8927 29.4423 70.9538 27.8878 74.264 27.3446C77.5739 26.8013 80.9712 27.2952 83.9894 28.759C87.0073 30.2228 89.4989 32.5844 91.1217 35.5198C92.7446 38.4556 93.4196 41.8216 93.0539 45.1559C92.6881 48.4902 91.2999 51.6298 89.0795 54.144L89.0831 54.1368Z" fill="#0098CD"/>
<path d="M86.186 61.5418C85.3573 62.2935 84.696 63.2111 84.2446 64.2353C83.7931 65.2592 83.5616 66.3662 83.5652 67.4854V68.4502C83.5652 71.8198 81.1244 74.8402 77.8052 75.1786C76.9081 75.2704 76.002 75.1736 75.1445 74.8942C74.2873 74.6145 73.4982 74.1587 72.8275 73.5557C72.1572 72.9527 71.6204 72.2162 71.2518 71.3932C70.8835 70.5702 70.6913 69.6792 70.6881 68.7778V67.4854C70.6863 66.36 70.4486 65.2476 69.9911 64.2198C69.5335 63.1917 68.8661 62.2708 68.0312 61.5166C70.8486 62.9346 73.9586 63.6755 77.113 63.6798C80.2673 63.6842 83.3791 62.9519 86.2004 61.5418H86.186Z" fill="#005B7B"/>
<path d="M86.186 61.5418C85.3573 62.2935 84.696 63.2111 84.2446 64.2353C83.7931 65.2592 83.5616 66.3662 83.5652 67.4854V68.4502C83.5652 71.8198 81.1244 74.8402 77.8052 75.1786C76.9081 75.2704 76.002 75.1736 75.1445 74.8942C74.2873 74.6145 73.4982 74.1587 72.8275 73.5557C72.1572 72.9527 71.6204 72.2162 71.2518 71.3932C70.8835 70.5702 70.6913 69.6792 70.6881 68.7778V67.4854C70.6863 66.36 70.4486 65.2476 69.9911 64.2198C69.5335 63.1917 68.8661 62.2708 68.0312 61.5166C70.8486 62.9346 73.9586 63.6755 77.113 63.6798C80.2673 63.6842 83.3791 62.9519 86.2004 61.5418H86.186Z" stroke="#001E29" stroke-width="2" stroke-miterlimit="10"/>
<path d="M98.2054 42.2207C98.2165 47.3716 96.333 52.3468 92.9134 56.1995C92.8705 56.246 92.8309 56.2953 92.7946 56.3471C91.2757 58.0204 89.502 59.4431 87.5386 60.5627C87.0511 60.8353 86.5968 61.1639 86.185 61.5419C83.3637 62.9524 80.2518 63.6843 77.0975 63.68C73.9432 63.6757 70.8335 62.9348 68.0158 61.5167C67.5856 61.1427 67.1201 60.8111 66.6262 60.5267C63.1489 58.5277 60.3129 55.58 58.4495 52.0286C56.5861 48.4768 55.7722 44.4682 56.1034 40.4711C56.5419 35.0387 59.0665 29.9876 63.1479 26.3761C67.2295 22.7645 72.5507 20.8738 77.9957 21.1003C83.4411 21.3263 88.5869 23.6523 92.3547 27.5896C96.1224 31.5273 98.2194 36.7707 98.2054 42.2207Z" stroke="#001E29" stroke-width="2" stroke-miterlimit="10"/>
<path d="M71.158 63.6803L66.3268 47.6676L65.1172 43.1315C65.1172 42.9951 65.1622 42.8626 65.245 42.7543C65.3281 42.6463 65.4444 42.5685 65.5762 42.5332C65.7079 42.4979 65.8476 42.507 65.9736 42.5592C66.0996 42.6114 66.2047 42.7039 66.2728 42.8219C67.3528 44.7299 69.0592 47.1239 70.7584 47.0627C73.5772 46.9619 71.2624 38.4047 68.9584 39.3011C66.6544 40.1975 71.0716 45.8532 75.622 46.5588C80.1724 47.2644 78.9268 39.6143 75.622 39.3119C72.3172 39.0095 74.596 45.4536 80.536 46.5588C86.476 47.664 85.3672 41.1228 83.758 39.816C82.1488 38.5092 82.6492 46.0547 86.3788 47.2643C87.5596 47.6495 88.4992 46.8252 88.96 45.7992C89.2264 45.2016 89.0896 42.1776 88.5424 43.11C87.4264 45.0216 87.2068 47.4084 86.6596 49.518C85.4968 53.982 83.7184 58.2551 82.6996 62.7587" stroke="#001E29" stroke-width="2" stroke-miterlimit="10"/>
<path d="M39.4062 324.939C41.9551 323.744 277.006 324.939 277.006 324.939" stroke="#001E29" stroke-width="2" stroke-miterlimit="10"/>
<path d="M77.1033 13.6223L76.8945 0.939453" stroke="#001E29" stroke-width="7.34" stroke-miterlimit="10"/>
<path d="M52.9132 25.4193L44.1328 16.2646" stroke="#001E29" stroke-width="7.34" stroke-miterlimit="10"/>
<path d="M101.383 25.988L110.358 17.0239" stroke="#001E29" stroke-width="7.34" stroke-miterlimit="10"/>
<path d="M235.925 307.638L236.231 307.667C236.066 307.695 235.871 307.724 235.702 307.764H235.443L211.067 307.638H208.313L167.36 307.429C167.205 307.429 167.05 307.429 166.895 307.429C166.859 307.436 166.821 307.436 166.784 307.429C166.784 307.429 166.784 307.429 166.759 307.429C166.501 307.432 166.244 307.413 165.988 307.375C168.179 307.127 170.254 306.265 171.975 304.887C172.245 304.661 172.522 304.445 172.774 304.2L172.803 304.171C172.862 304.124 172.917 304.072 172.969 304.016C175.05 301.958 176.297 299.202 176.468 296.28C176.468 296.139 176.468 295.985 176.468 295.844V295.621C176.456 292.893 175.504 290.252 173.774 288.142C172.044 286.033 169.64 284.583 166.967 284.036C166.964 284.033 166.958 284.031 166.953 284.031C166.948 284.031 166.943 284.033 166.939 284.036C166.672 283.968 166.366 283.925 166.085 283.881L166.687 283.842C166.785 283.835 166.884 283.835 166.982 283.842C167.147 283.842 167.302 283.842 167.457 283.842L202.057 284.022L208.425 284.051L214.077 284.079H216.709H217.029C217.072 284.079 217.097 284.079 217.141 284.079C220.059 284.374 222.764 285.739 224.734 287.912C226.703 290.085 227.797 292.911 227.804 295.844C227.804 296.402 227.762 296.96 227.678 297.511C227.27 300.252 225.915 302.763 223.847 304.608C221.781 306.454 219.133 307.517 216.363 307.613C216.237 307.613 216.111 307.613 216.003 307.613H236.559C236.26 307.623 236.066 307.623 235.925 307.638Z" fill="white"/>
<path d="M180.878 321.944C181.656 322.726 182.581 323.346 183.599 323.769C184.617 324.192 185.709 324.408 186.811 324.407H166.73C162.886 324.407 160.798 323.471 159.275 321.944C157.702 320.37 156.816 318.237 156.812 316.012C156.812 311.411 160.589 307.631 166.73 307.631H186.811C185.152 307.628 183.529 308.118 182.148 309.039C180.768 309.96 179.691 311.27 179.056 312.803C178.42 314.336 178.254 316.023 178.579 317.65C178.904 319.278 179.704 320.772 180.878 321.944Z" fill="#E6F7FF"/>
<path d="M236.008 307.665C236.024 307.66 236.04 307.661 236.055 307.667C236.04 307.666 236.024 307.666 236.008 307.665C235.954 307.661 235.9 307.652 235.846 307.638H216.363C218.897 307.503 221.319 306.554 223.272 304.934C223.566 304.694 223.847 304.438 224.114 304.167C224.337 303.951 224.548 303.721 224.744 303.48C224.895 303.313 225.034 303.136 225.162 302.951C225.244 302.85 225.316 302.753 225.385 302.655C225.518 302.477 225.638 302.29 225.745 302.094C225.909 301.866 226.054 301.625 226.18 301.374C226.315 301.134 226.435 300.886 226.54 300.632C226.594 300.521 226.638 300.395 226.71 300.272C226.807 300.021 226.89 299.769 226.972 299.517V299.516C227.088 299.156 227.199 298.775 227.282 298.401C227.332 298.198 227.37 297.992 227.394 297.785C227.41 297.735 227.42 297.683 227.422 297.63C227.438 297.59 227.448 297.547 227.451 297.504C227.451 297.363 227.491 297.237 227.505 297.097V297.014C227.558 296.624 227.582 296.231 227.577 295.837C227.582 295.656 227.573 295.474 227.548 295.294V295.167C227.548 294.989 227.534 294.811 227.505 294.635C227.41 293.663 227.189 292.709 226.846 291.794C226.657 291.246 226.416 290.717 226.126 290.214C225.862 289.708 225.554 289.226 225.205 288.774C225.115 288.642 225.016 288.516 224.91 288.396C224.866 288.353 224.827 288.295 224.769 288.241C224.583 287.996 224.377 287.766 224.154 287.554C223.988 287.388 223.794 287.219 223.624 287.039C223.455 286.859 223.174 286.646 222.937 286.477C222.699 286.308 222.544 286.186 222.336 286.045C222.025 285.82 221.698 285.619 221.356 285.444C221.038 285.258 220.706 285.098 220.363 284.965C219.965 284.795 219.559 284.646 219.146 284.519C219.005 284.466 218.859 284.429 218.71 284.407C218.325 284.298 217.933 284.213 217.537 284.155C217.339 284.112 217.144 284.097 216.936 284.072H216.907C216.88 284.079 216.851 284.079 216.824 284.072H216.907H216.936C217.144 284.097 217.339 284.112 217.537 284.155C217.933 284.213 218.325 284.298 218.71 284.407C218.859 284.429 219.005 284.466 219.146 284.519C219.559 284.646 219.965 284.795 220.363 284.965C220.706 285.098 221.038 285.258 221.356 285.444C221.698 285.619 222.025 285.82 222.336 286.045C222.544 286.186 222.699 286.308 222.937 286.477C223.174 286.646 223.455 286.859 223.624 287.039C223.794 287.219 223.988 287.388 224.154 287.554C224.377 287.766 224.583 287.996 224.769 288.241C224.827 288.295 224.866 288.353 224.91 288.396C225.016 288.516 225.115 288.642 225.205 288.774C225.554 289.226 225.862 289.708 226.126 290.214C226.416 290.717 226.657 291.246 226.846 291.794C227.189 292.709 227.41 293.663 227.505 294.635C227.534 294.811 227.548 294.989 227.548 295.167V295.294C227.573 295.474 227.582 295.656 227.577 295.837C227.582 296.231 227.558 296.624 227.505 297.014V297.097C227.491 297.237 227.451 297.363 227.451 297.504C227.448 297.547 227.438 297.59 227.422 297.63C227.42 297.683 227.41 297.735 227.394 297.785C227.37 297.992 227.332 298.198 227.282 298.401C227.199 298.775 227.088 299.156 226.972 299.516V299.517C226.89 299.769 226.807 300.021 226.71 300.272C226.638 300.395 226.594 300.521 226.54 300.632C226.435 300.886 226.315 301.134 226.18 301.374C226.054 301.625 225.909 301.866 225.745 302.094C225.638 302.29 225.518 302.477 225.385 302.655C225.316 302.753 225.244 302.85 225.162 302.951C225.034 303.136 224.895 303.313 224.744 303.48C224.548 303.721 224.337 303.951 224.114 304.167C223.847 304.438 223.566 304.694 223.272 304.934C221.319 306.554 218.897 307.503 216.363 307.638H235.846C235.893 307.631 235.94 307.631 235.987 307.638H235.846C235.9 307.652 235.954 307.661 236.008 307.665Z" fill="#0098CD"/>
<path d="M247.26 296.013C247.26 296.236 247.26 296.474 247.231 296.697C247.202 297.075 247.162 297.439 247.105 297.802C247.076 297.997 247.036 298.195 246.993 298.389C246.91 298.749 246.813 299.145 246.702 299.509C246.575 299.91 246.425 300.303 246.252 300.686C246.196 300.836 246.126 300.981 246.043 301.118C246.043 301.161 246.014 301.19 245.985 301.23C245.902 301.413 245.805 301.59 245.708 301.762C245.553 302.043 245.384 302.32 245.204 302.587C244.992 302.911 244.754 303.202 244.516 303.498C244.275 303.791 244.018 304.071 243.746 304.336C243.461 304.626 243.158 304.898 242.839 305.15L242.479 305.442C242.069 305.751 241.639 306.031 241.19 306.28C240.981 306.392 240.758 306.507 240.535 306.619C240.514 306.634 240.489 306.643 240.463 306.644C240.211 306.77 239.959 306.871 239.707 306.968C239.455 307.065 239.203 307.162 238.94 307.245C238.674 307.317 238.407 307.4 238.141 307.458L237.921 307.497C237.712 307.544 237.504 307.584 237.291 307.616C236.915 307.681 236.535 307.725 236.154 307.749C235.921 307.773 235.688 307.783 235.455 307.778C235.455 307.778 235.412 307.778 235.398 307.778L211.062 307.659L205.327 307.63L167.102 307.436C166.961 307.434 166.821 307.424 166.681 307.407C166.36 307.407 166.051 307.378 165.73 307.353C168.5 307.023 171.065 305.732 172.98 303.704C174.895 301.677 176.038 299.042 176.21 296.258C176.21 296.118 176.21 295.963 176.21 295.808V295.657C176.213 292.914 175.268 290.255 173.533 288.13C171.799 286.005 169.383 284.546 166.695 284C166.414 283.943 166.134 283.903 165.842 283.86C166.12 283.827 166.4 283.809 166.681 283.806C166.779 283.798 166.878 283.798 166.976 283.806H167.214L205.438 284L214.078 284.043H216.904H217.142L235.502 284.14C236.105 284.143 236.706 284.19 237.302 284.281C238.823 284.53 240.281 285.072 241.597 285.876C241.766 285.973 241.917 286.085 242.072 286.182C242.538 286.501 242.982 286.852 243.4 287.233C243.541 287.359 243.667 287.485 243.807 287.625C244.874 288.706 245.728 289.977 246.327 291.373L246.54 291.92C246.61 292.098 246.67 292.279 246.72 292.464C247.078 293.612 247.26 294.809 247.26 296.013Z" stroke="#001E29" stroke-width="2" stroke-linecap="square" stroke-linejoin="round"/>
<path d="M227.56 295.801C227.562 296.194 227.543 296.587 227.502 296.978C227.502 297.007 227.502 297.032 227.502 297.061C227.474 297.244 227.448 297.421 227.42 297.594C227.417 297.646 227.407 297.698 227.391 297.748C227.367 297.956 227.33 298.161 227.279 298.364C227.196 298.724 227.085 299.116 226.97 299.48C226.887 299.732 226.804 299.984 226.707 300.236C226.635 300.362 226.592 300.488 226.538 300.596C226.432 300.85 226.312 301.098 226.178 301.338C226.051 301.589 225.906 301.829 225.742 302.058C225.635 302.253 225.515 302.441 225.382 302.619C225.314 302.716 225.242 302.814 225.159 302.914C225.031 303.099 224.892 303.276 224.741 303.444C224.545 303.685 224.334 303.915 224.111 304.131C223.843 304.396 223.562 304.647 223.269 304.884C221.32 306.512 218.899 307.469 216.364 307.612C216.238 307.612 216.112 307.612 216.004 307.612H167.156C166.709 307.612 166.248 307.587 165.784 307.544C166.085 307.508 166.384 307.457 166.68 307.389C166.704 307.398 166.729 307.398 166.752 307.389H166.778C169.047 306.916 171.129 305.79 172.768 304.149L172.797 304.12C174.88 302.015 176.098 299.204 176.21 296.244C176.21 296.103 176.21 295.948 176.21 295.794V295.779C176.187 292.894 175.115 290.115 173.194 287.962C171.273 285.809 168.634 284.429 165.77 284.079C166.079 284.04 166.385 284.025 166.695 284.011C166.773 283.996 166.854 283.996 166.932 284.011C166.936 284.007 166.941 284.005 166.947 284.005C166.952 284.005 166.957 284.007 166.961 284.011C167.021 284.004 167.081 284.004 167.141 284.011H215.734C216.072 284.011 216.393 284.011 216.717 284.054H216.828C216.855 284.061 216.884 284.061 216.911 284.054H216.969L217.541 284.137C217.938 284.195 218.33 284.279 218.715 284.389C218.855 284.418 219.01 284.457 219.15 284.5C219.564 284.628 219.97 284.777 220.367 284.947C220.702 285.087 221.04 285.256 221.361 285.426C221.699 285.606 222.026 285.806 222.34 286.027C222.549 286.167 222.747 286.304 222.941 286.459C223.136 286.614 223.402 286.819 223.629 287.02C223.856 287.222 223.989 287.38 224.158 287.535C224.37 287.762 224.579 287.985 224.774 288.223C224.831 288.277 224.871 288.334 224.914 288.378L225.209 288.756C225.546 289.216 225.854 289.697 226.131 290.196C226.403 290.708 226.643 291.235 226.851 291.776C227.181 292.694 227.402 293.647 227.51 294.616C227.51 294.8 227.538 294.976 227.553 295.149V295.275C227.56 295.437 227.56 295.621 227.56 295.801Z" stroke="#001E29" stroke-width="2" stroke-linecap="square" stroke-linejoin="round"/>
<path d="M236.542 324.4H166.724C165.167 324.441 163.616 324.22 162.134 323.744C161.838 323.633 161.561 323.521 161.295 323.384C161.028 323.244 160.791 323.104 160.553 322.963C160.316 322.823 160.107 322.643 159.894 322.474C159.686 322.29 159.491 322.114 159.308 321.926C158.349 320.969 157.639 319.793 157.238 318.499C156.983 317.693 156.855 316.853 156.86 316.008C156.857 315.681 156.876 315.353 156.917 315.029C156.97 314.573 157.068 314.123 157.209 313.686C157.404 312.995 157.706 312.339 158.105 311.742C158.333 311.352 158.605 310.99 158.915 310.662C159.106 310.45 159.308 310.248 159.52 310.057C161.226 308.534 163.703 307.595 166.767 307.595H236.542C236.261 307.595 236.067 307.595 235.926 307.595C235.88 307.588 235.832 307.588 235.786 307.595C235.646 307.595 235.674 307.595 235.743 307.595C235.747 307.598 235.752 307.6 235.757 307.6C235.762 307.6 235.768 307.598 235.772 307.595C235.804 307.601 235.837 307.601 235.869 307.595C235.898 307.595 235.912 307.595 235.941 307.595C235.786 307.624 235.631 307.638 235.476 307.678H235.444C235.444 307.678 235.401 307.678 235.386 307.678C233.478 308.057 231.76 309.085 230.523 310.587C229.286 312.089 228.607 313.972 228.6 315.918C228.612 317.97 229.369 319.947 230.731 321.482C232.092 323.017 233.966 324.004 236.002 324.259C235.66 324.389 235.34 324.4 236.542 324.4Z" stroke="#001E29" stroke-width="2" stroke-linecap="square" stroke-linejoin="round"/>
<path d="M235.982 324.36C235.661 324.389 235.341 324.4 235.017 324.4H186.802C185.702 324.399 184.613 324.181 183.597 323.759C182.582 323.336 181.66 322.717 180.884 321.937C179.926 320.98 179.215 319.804 178.814 318.51C178.565 317.704 178.444 316.863 178.454 316.019C178.458 313.796 179.341 311.665 180.912 310.092C182.482 308.518 184.611 307.631 186.834 307.624H235.017C235.254 307.624 235.506 307.624 235.737 307.652C235.779 307.659 235.821 307.659 235.863 307.652C235.892 307.652 235.906 307.652 235.935 307.652C235.78 307.681 235.625 307.696 235.47 307.735H235.445C235.445 307.735 235.402 307.735 235.388 307.735C233.48 308.115 231.761 309.143 230.524 310.645C229.288 312.147 228.609 314.03 228.602 315.976C228.613 318.028 229.37 320.005 230.732 321.54C232.094 323.075 233.967 324.062 236.003 324.317L235.982 324.36Z" stroke="#001E29" stroke-width="2" stroke-linecap="square" stroke-linejoin="round"/>
<path d="M178.42 316.019C178.42 318.242 179.303 320.373 180.875 321.945C182.446 323.517 184.578 324.4 186.801 324.4H166.724C162.89 324.4 160.791 323.463 159.264 321.937C158.486 321.161 157.87 320.238 157.45 319.222C157.03 318.207 156.814 317.118 156.816 316.019C156.816 311.404 160.582 307.624 166.724 307.624H186.801C184.578 307.631 182.448 308.518 180.878 310.092C179.307 311.665 178.424 313.796 178.42 316.019Z" stroke="#001E29" stroke-width="2" stroke-linecap="square" stroke-linejoin="round"/>
<path d="M236.542 324.399H235.016C235.34 324.399 235.66 324.399 235.98 324.36C235.66 324.389 235.34 324.399 236.542 324.399Z" stroke="#001E29" stroke-width="2" stroke-linecap="square" stroke-linejoin="round"/>
<path d="M235.869 307.659C235.592 307.659 235.296 307.616 235.016 307.616H236.542C235.476 307.623 235.602 307.659 235.869 307.659Z" stroke="#001E29" stroke-width="2" stroke-linecap="square" stroke-linejoin="round"/>
<path opacity="0.54" d="M26.6442 292.82L1.65316 228.798C1.34352 227.56 1.32026 226.266 1.58512 225.018C1.84997 223.768 2.39598 222.596 3.18165 221.59C3.96735 220.583 4.97203 219.769 6.11946 219.209C7.26685 218.65 8.52678 218.358 9.80356 218.358H109.084C111.313 218.358 113.477 219.107 115.228 220.487C116.979 221.866 118.214 223.794 118.736 225.961L146.096 289.976C146.393 291.212 146.405 292.498 146.133 293.739C145.861 294.98 145.311 296.143 144.524 297.141C143.737 298.139 142.735 298.945 141.591 299.499C140.448 300.053 139.195 300.341 137.924 300.341H36.267C34.0541 300.341 31.9045 299.6 30.161 298.238C28.4172 296.875 27.1795 294.968 26.6442 292.82Z" fill="white"/>
<path d="M26.6442 292.82L1.65316 228.798C1.34352 227.56 1.32026 226.266 1.58512 225.018C1.84997 223.768 2.39598 222.596 3.18165 221.59C3.96735 220.583 4.97203 219.769 6.11946 219.209C7.26685 218.65 8.52678 218.358 9.80356 218.358H109.084C111.313 218.358 113.477 219.107 115.228 220.487C116.979 221.866 118.214 223.794 118.736 225.961L146.096 289.976C146.393 291.212 146.405 292.498 146.133 293.739C145.861 294.98 145.311 296.143 144.524 297.141C143.737 298.139 142.735 298.945 141.591 299.499C140.448 300.053 139.195 300.341 137.924 300.341H36.267C34.0541 300.341 31.9045 299.6 30.161 298.238C28.4172 296.875 27.1795 294.968 26.6442 292.82Z" fill="#0098CD"/>
<path d="M26.6442 292.82L1.65316 228.798C1.34352 227.56 1.32026 226.266 1.58512 225.018C1.84997 223.768 2.39598 222.596 3.18165 221.59C3.96735 220.583 4.97203 219.769 6.11946 219.209C7.26685 218.65 8.52678 218.358 9.80356 218.358H109.084C111.313 218.358 113.477 219.107 115.228 220.487C116.979 221.866 118.214 223.794 118.736 225.961L146.096 289.976C146.393 291.212 146.405 292.498 146.133 293.739C145.861 294.98 145.311 296.143 144.524 297.141C143.737 298.139 142.735 298.945 141.591 299.499C140.448 300.053 139.195 300.341 137.924 300.341H36.267C34.0541 300.341 31.9045 299.6 30.161 298.238C28.4172 296.875 27.1795 294.968 26.6442 292.82Z" stroke="#001E29" stroke-width="2" stroke-linecap="square" stroke-linejoin="round"/>
<path d="M30.2956 290.228L7.2556 231.163C6.96958 230.021 6.94755 228.829 7.19109 227.677C7.43467 226.525 7.93744 225.444 8.6613 224.515C9.38515 223.586 10.311 222.835 11.3686 222.318C12.4262 221.8 13.5878 221.531 14.7652 221.529H106.342C108.398 221.53 110.395 222.222 112.009 223.495C113.624 224.767 114.764 226.547 115.245 228.546L140.484 287.586C140.758 288.725 140.77 289.912 140.519 291.058C140.268 292.202 139.76 293.276 139.035 294.196C138.309 295.117 137.384 295.861 136.33 296.373C135.275 296.885 134.118 297.151 132.946 297.151H39.1804C37.1399 297.152 35.1574 296.471 33.5478 295.217C31.9383 293.963 30.7938 292.207 30.2956 290.228Z" fill="#0098CD"/>
<path d="M99.7239 232.391C98.5107 230.566 96.5271 229.756 95.2887 230.591C94.0503 231.426 94.0323 233.561 95.2455 235.386C95.4366 235.664 95.6508 235.925 95.8863 236.167L86.8863 255.164C85.4463 254.207 83.8731 253.969 82.7427 254.725C82.3777 254.991 82.0753 255.333 81.8567 255.728C81.6386 256.123 81.5097 256.561 81.4791 257.011L75.3303 254.934L69.9555 253.134L68.1987 252.558C67.9784 251.898 67.672 251.27 67.2879 250.69C65.5815 248.126 62.7951 246.989 61.0563 248.144C59.3175 249.3 59.2995 252.256 60.9591 254.801L50.7315 268.78C48.4995 266.947 45.8679 266.382 44.0463 267.592C41.5695 269.244 41.5263 273.546 43.9635 277.204C44.0607 277.348 44.1723 277.47 44.2731 277.607L37.4439 286.938L37.3827 287.028C37.1901 287.288 37.0526 287.584 36.978 287.898C36.9035 288.212 36.8942 288.538 36.9496 288.856C37.0054 289.174 37.1253 289.478 37.302 289.748C37.4788 290.019 37.7088 290.25 37.9778 290.429C38.247 290.607 38.5498 290.729 38.8673 290.787C39.1852 290.845 39.5114 290.837 39.826 290.765C40.141 290.693 40.4376 290.557 40.6983 290.367C40.9593 290.176 41.1782 289.934 41.3427 289.656L47.4159 280.516C49.3311 281.628 51.3759 281.84 52.8627 280.847C55.2315 279.27 55.3431 275.281 53.2227 271.739L63.0327 256.932C64.4727 257.915 66.0783 258.167 67.2231 257.407C67.8632 256.956 68.2991 256.27 68.4363 255.499L69.1563 255.704L74.6247 257.198L81.6231 259.085C81.8355 259.923 82.1886 260.719 82.6671 261.439C84.3699 263.999 87.1599 265.14 88.8987 263.984C90.6375 262.829 90.6591 259.816 88.9563 257.256C88.7046 256.884 88.4231 256.534 88.1139 256.208L96.6783 236.844C97.7115 237.564 98.8383 237.726 99.6699 237.182C100.926 236.38 100.944 234.22 99.7239 232.391Z" fill="white"/>
<path d="M34.5656 233.439H21.2996C20.6894 233.441 20.0918 233.265 19.5802 232.932C19.0687 232.6 18.6651 232.125 18.4196 231.567C18.344 231.395 18.3037 231.21 18.3008 231.023C18.3047 230.661 18.4509 230.316 18.7076 230.061C18.9643 229.806 19.3109 229.663 19.6724 229.662H33.7808C33.1256 230.782 33.4856 232.337 34.5656 233.439Z" fill="#E6F7FF"/>
<path d="M43.1534 232.077C43.1516 232.438 43.0072 232.784 42.7516 233.039C42.496 233.294 42.1501 233.437 41.789 233.438H34.5638C33.4622 232.336 33.1238 230.781 33.7898 229.662H40.1618C40.7709 229.658 41.3678 229.833 41.8793 230.163C42.3909 230.494 42.7948 230.966 43.0418 231.523C43.1163 231.698 43.1545 231.887 43.1534 232.077Z" fill="#0098CD"/>
<path d="M39.8348 233.438C39.7959 233.511 39.7527 233.58 39.7052 233.647C38.7548 234.939 36.7028 235.062 35.108 233.895C34.9168 233.758 34.7376 233.605 34.5716 233.438C33.47 232.337 33.1316 230.781 33.7976 229.662C33.8336 229.588 33.8772 229.518 33.9272 229.453C34.8668 228.153 36.9188 228.042 38.5136 229.197C38.7073 229.337 38.8891 229.492 39.0572 229.662C40.1516 230.767 40.49 232.308 39.8348 233.438Z" fill="white"/>
<path d="M46.4926 240.408C46.4897 240.77 46.3439 241.116 46.0872 241.37C45.8302 241.625 45.4828 241.769 45.121 241.769H31.1926C31.8658 240.638 31.531 239.097 30.4258 237.992H43.5082C44.1184 237.99 44.716 238.165 45.2276 238.498C45.7395 238.831 46.1427 239.305 46.3882 239.864C46.4588 240.037 46.4944 240.221 46.4926 240.408Z" fill="#0098CD"/>
<path d="M31.1914 241.779H24.6394C24.0303 241.783 23.4335 241.608 22.9219 241.278C22.4103 240.947 22.0064 240.475 21.7595 239.918C21.6839 239.744 21.6435 239.557 21.6406 239.367C21.6396 239.188 21.6741 239.011 21.7422 238.845C21.8102 238.679 21.9103 238.529 22.0367 238.402C22.1634 238.275 22.3135 238.174 22.4791 238.106C22.6447 238.038 22.8222 238.002 23.0015 238.003H30.4246C31.5298 239.097 31.8646 240.638 31.1914 241.779Z" fill="#E6F7FF"/>
<path d="M31.1927 241.78C31.1629 241.854 31.1229 241.925 31.0739 241.988C30.1343 243.292 28.0787 243.403 26.4839 242.248C26.2867 242.106 26.1002 241.949 25.9259 241.78C24.8459 240.678 24.4859 239.134 25.1519 238.003C25.1872 237.93 25.2308 237.861 25.2815 237.798C26.2283 236.502 28.2803 236.383 29.8787 237.546C30.0677 237.685 30.2459 237.838 30.4115 238.003C31.5311 239.098 31.8659 240.638 31.1927 241.78Z" fill="white"/>
<path d="M35.8325 250.059H27.4949C26.8858 250.061 26.2893 249.886 25.7781 249.555C25.2669 249.223 24.8626 248.751 24.6149 248.194C24.5393 248.023 24.499 247.838 24.4961 247.651C24.4972 247.287 24.6419 246.939 24.8989 246.682C25.156 246.425 25.5045 246.28 25.8677 246.279H35.0405C34.3997 247.392 34.7381 248.936 35.8325 250.059Z" fill="#0098CD"/>
<path d="M49.3476 248.688C49.3455 249.048 49.2007 249.393 48.9451 249.647C48.6892 249.901 48.3432 250.043 47.9832 250.042H35.8332C34.7532 248.937 34.3932 247.392 35.0556 246.262H46.3632C46.9705 246.261 47.5649 246.438 48.0732 246.771C48.5815 247.103 48.9819 247.577 49.2252 248.134C49.3033 248.308 49.3447 248.497 49.3476 248.688Z" fill="#E6F7FF"/>
<path d="M41.0928 250.059C41.0572 250.132 41.014 250.201 40.9632 250.264C40.0236 251.568 37.9716 251.679 36.3768 250.524C36.1853 250.381 36.0035 250.226 35.8332 250.059C34.7532 248.954 34.3932 247.41 35.0556 246.279C35.0934 246.208 35.1366 246.139 35.1852 246.074C36.1356 244.782 38.1876 244.666 39.7824 245.822C39.9714 245.962 40.1507 246.114 40.3188 246.279C41.406 247.366 41.766 248.918 41.0928 250.059Z" fill="white"/>
<path d="M89.7421 289.062H81.4008C80.7917 289.064 80.1952 288.888 79.6836 288.557C79.1724 288.226 78.7685 287.753 78.5208 287.197C78.4424 287.026 78.4006 286.841 78.3984 286.653C78.3992 286.29 78.5442 285.942 78.8013 285.685C79.058 285.428 79.4064 285.282 79.77 285.282H88.9465C88.3093 286.419 88.6476 287.957 89.7421 289.062Z" fill="#0098CD"/>
<path d="M122.841 287.708C122.841 287.886 122.805 288.063 122.737 288.227C122.668 288.392 122.568 288.541 122.441 288.667C122.315 288.792 122.165 288.892 122 288.96C121.835 289.028 121.659 289.062 121.481 289.062H89.7395C88.6595 287.957 88.2995 286.412 88.9619 285.282H119.857C120.464 285.281 121.059 285.458 121.567 285.791C122.075 286.123 122.476 286.597 122.719 287.154C122.797 287.328 122.839 287.517 122.841 287.708Z" fill="#E6F7FF"/>
<path d="M94.9991 289.062C94.9634 289.135 94.9202 289.204 94.8695 289.267C93.9299 290.57 91.8779 290.682 90.2831 289.526C90.0908 289.385 89.909 289.229 89.7395 289.062C88.6595 287.957 88.2995 286.412 88.9619 285.282C88.9997 285.21 89.0429 285.141 89.0915 285.077C90.0419 283.784 92.0939 283.669 93.6887 284.825C93.8777 284.964 94.0569 285.117 94.2251 285.282C95.3267 286.387 95.6651 287.939 94.9991 289.062Z" fill="white"/>
</svg>
