<svg width="362" height="251" viewBox="0 0 362 251" fill="none" xmlns="http://www.w3.org/2000/svg">
<path d="M330.155 26.5957H258.186C254.521 26.5957 251.551 29.5662 251.551 33.2305V136.145C251.551 139.809 254.521 142.78 258.186 142.78H330.155C333.82 142.78 336.79 139.809 336.79 136.145V33.2305C336.79 29.5662 333.82 26.5957 330.155 26.5957Z" stroke="#C2EFFF" stroke-width="2" stroke-miterlimit="10"/>
<path d="M327.049 38.5654H262.165C260.333 38.5654 258.848 40.0507 258.848 41.8828V55.6827C258.848 57.5148 260.333 59 262.165 59H327.049C328.882 59 330.367 57.5148 330.367 55.6827V41.8828C330.367 40.0507 328.882 38.5654 327.049 38.5654Z" stroke="#C2EFFF" stroke-width="2" stroke-miterlimit="10"/>
<path d="M294.172 47.1742C295.339 47.1742 296.285 46.2281 296.285 45.061C296.285 43.8939 295.339 42.9478 294.172 42.9478C293.005 42.9478 292.059 43.8939 292.059 45.061C292.059 46.2281 293.005 47.1742 294.172 47.1742Z" fill="#E6F7FF"/>
<path d="M288.266 54.6224C288.266 53.0562 288.888 51.5542 289.995 50.4469C291.103 49.3393 292.605 48.7173 294.171 48.7173C295.737 48.7173 297.239 49.3393 298.347 50.4469C299.454 51.5542 300.076 53.0562 300.076 54.6224H288.266Z" fill="#E6F7FF"/>
<path d="M294.602 80.9023C292.351 80.9031 290.15 81.5714 288.279 82.8226C286.408 84.0738 284.949 85.8521 284.088 87.9322C283.227 90.0124 283.002 92.3011 283.442 94.5092C283.882 96.7169 284.966 98.7448 286.558 100.337C288.15 101.928 290.179 103.012 292.387 103.451C294.595 103.89 296.884 103.664 298.963 102.802C301.043 101.941 302.821 100.482 304.072 98.6097C305.322 96.7377 305.99 94.5371 305.99 92.2859C305.99 90.7907 305.695 89.3098 305.123 87.9287C304.551 86.5471 303.712 85.2919 302.654 84.2349C301.597 83.1779 300.341 82.3393 298.96 81.7676C297.578 81.1958 296.097 80.9015 294.602 80.9023ZM294.602 100.922C294.175 100.901 293.772 100.717 293.477 100.407C293.182 100.097 293.017 99.6854 293.017 99.2576C293.017 98.8294 293.182 98.4179 293.477 98.1081C293.772 97.7983 294.175 97.6137 294.602 97.5929C295.03 97.6137 295.433 97.7983 295.728 98.1081C296.023 98.4179 296.188 98.8294 296.188 99.2576C296.188 99.6854 296.023 100.097 295.728 100.407C295.433 100.717 295.03 100.901 294.602 100.922ZM296.704 88.1192C296.353 90.5873 296.058 93.1791 295.32 95.5794C295.145 96.1575 294.06 96.1575 293.885 95.5794C293.365 93.7748 292.965 91.9378 292.688 90.081C292.461 88.7293 291.672 86.5403 292.425 85.2285C293.091 84.0323 294.965 83.9127 296.054 84.5267C297.389 85.2803 296.863 86.8912 296.704 88.1192Z" fill="#E6F7FF"/>
<path d="M170.043 49.6622C166.051 48.472 161.797 48.4923 157.817 49.72C153.838 50.9481 150.312 53.3285 147.685 56.5605C145.058 59.7926 143.449 63.7308 143.061 67.8775C142.672 72.0238 143.522 76.1925 145.503 79.856C147.484 83.5195 150.507 86.5135 154.189 88.4589C157.872 90.4042 162.049 91.214 166.191 90.7858C170.334 90.3572 174.257 88.7101 177.463 86.0526C180.669 83.3947 183.016 79.8456 184.205 75.8544C184.995 73.2045 185.256 70.4254 184.972 67.675C184.687 64.9242 183.864 62.2567 182.549 59.8245C181.234 57.3923 179.452 55.2431 177.307 53.4995C175.161 51.7555 172.692 50.4517 170.043 49.6622ZM159.464 85.1486C158.704 84.8974 158.071 84.36 157.7 83.6498C157.33 82.9401 157.251 82.1136 157.48 81.346C157.708 80.5785 158.227 79.9305 158.926 79.5394C159.625 79.1482 160.449 79.045 161.223 79.2515C161.621 79.3576 161.993 79.5426 162.318 79.795C162.643 80.0478 162.915 80.3632 163.116 80.7224C163.316 81.0817 163.443 81.478 163.489 81.8871C163.534 82.2966 163.497 82.7104 163.379 83.1052C163.261 83.4999 163.066 83.8668 162.804 84.1845C162.542 84.5019 162.219 84.7639 161.854 84.9545C161.489 85.1451 161.089 85.2603 160.679 85.2938C160.268 85.3269 159.855 85.2778 159.464 85.1486ZM169.951 63.5617C168.025 67.7523 166.127 72.1901 163.571 76.0537C162.957 76.9868 161.031 76.4126 161.027 75.2962C161.06 71.8265 161.326 68.3632 161.825 64.9293C162.136 62.4214 161.893 58.1231 163.922 56.1933C165.724 54.4668 169.106 55.2085 170.72 56.8671C172.662 58.8927 170.884 61.4724 169.951 63.5617Z" fill="#0098CD"/>
<path d="M111.235 96.2852C109.775 97.7713 108.789 99.6569 108.4 101.704C108.011 103.75 108.238 105.866 109.052 107.784C109.866 109.702 111.23 111.335 112.972 112.477C114.714 113.62 116.756 114.22 118.839 114.202C120.923 114.184 122.954 113.55 124.676 112.377C126.398 111.205 127.734 109.549 128.515 107.617C129.296 105.686 129.487 103.566 129.063 101.526C128.64 99.4866 127.621 97.6186 126.135 96.1577C124.143 94.1991 121.453 93.1122 118.659 93.1361C115.865 93.1601 113.194 94.2928 111.235 96.2852ZM124.449 109.272C124.307 109.416 124.139 109.531 123.952 109.61C123.767 109.689 123.567 109.731 123.365 109.733C123.163 109.734 122.962 109.696 122.775 109.621C122.587 109.545 122.416 109.433 122.272 109.292C122.128 109.15 122.013 108.981 121.934 108.795C121.855 108.609 121.813 108.409 121.811 108.207C121.809 108.005 121.847 107.804 121.923 107.617C121.999 107.43 122.11 107.259 122.252 107.115C122.538 106.823 122.928 106.658 123.336 106.654C123.745 106.65 124.138 106.809 124.429 107.095C124.72 107.381 124.886 107.771 124.89 108.179C124.894 108.587 124.735 108.98 124.449 109.272ZM117.363 99.5867C118.763 101.421 120.282 103.299 121.387 105.34C121.654 105.831 120.952 106.536 120.458 106.289C118.935 105.458 117.47 104.526 116.072 103.498C115.031 102.776 113.077 101.875 112.698 100.524C112.356 99.3275 113.496 97.9958 114.588 97.6808C115.932 97.29 116.654 98.6816 117.363 99.5867Z" fill="#0098CD"/>
<path d="M266.004 68.123H321.614" stroke="#C2EFFF" stroke-width="2" stroke-miterlimit="10"/>
<path d="M266.004 73.5977H321.614" stroke="#C2EFFF" stroke-width="2" stroke-miterlimit="10"/>
<path d="M266.004 108.845H321.614" stroke="#C2EFFF" stroke-width="2" stroke-miterlimit="10"/>
<path d="M278.918 114.024H308.695" stroke="#C2EFFF" stroke-width="2" stroke-miterlimit="10"/>
<path d="M336.797 101.66C341.701 107.824 346.366 115.464 350.585 124.878C376.271 182.238 344.165 211.349 344.165 211.349" stroke="#48D0FF" stroke-width="2" stroke-miterlimit="10"/>
<path d="M68.5152 147.142C68.5152 147.142 30.4011 103.909 77.929 82.5012C125.457 61.0937 134.867 58.1192 131.438 35.8505C128.009 13.5817 154.963 -9.09371 197.351 5.89034C239.739 20.8744 240.589 49.112 237.582 70.9422C235.876 83.3863 242.937 86.3768 251.537 85.7508" stroke="#48D0FF" stroke-width="2" stroke-miterlimit="10"/>
<path d="M334.108 230.005C334.011 232.392 333.393 234.728 332.297 236.851C332.254 236.957 332.204 237.059 332.146 237.158C330.224 240.611 327.535 243.576 324.287 245.826L324.171 245.906C321.239 247.868 317.941 249.217 314.474 249.873C314.474 249.905 314.474 249.873 314.474 249.873H351.372C351.372 249.873 346.436 179.479 301.069 145.228C257.166 112.086 216.061 128.059 213.454 129.128C214.262 131.409 214.623 133.824 214.518 136.241C214.518 136.241 217.82 137.96 218.37 144.112C218.92 150.264 220.069 167.37 209.028 170.591C209.028 170.591 199.116 170.348 196.496 166.544C193.876 162.74 193.246 163.514 192.218 164.479C191.42 165.208 186.608 167.816 184.387 169.012C184.667 169.026 184.946 169.064 185.22 169.128C185.22 169.128 186.492 179.862 202.054 196.684C202.582 197.239 203.079 197.822 203.545 198.43C205.895 200.485 208.536 202.582 211.468 204.722L229.227 217.716C229.628 218.057 230.103 218.299 230.615 218.422C231.608 218.673 232.647 218.682 233.645 218.45C235.71 218.051 249.813 216.612 258.94 215.703C259.147 215.703 259.367 215.663 259.57 215.639L260.766 215.523C260.958 215.523 261.165 215.484 261.332 215.472L262.409 215.368C262.935 215.316 263.41 215.264 263.848 215.228L265.045 215.113C266.101 215.009 266.727 214.945 266.779 214.945C268.953 214.883 271.121 214.673 273.266 214.315C275.32 213.917 277.194 213.275 277.68 212.21C277.772 211.986 277.807 211.742 277.78 211.5C277.67 210.823 277.387 210.186 276.958 209.65C275.084 207.134 270.73 204.977 270.411 204.822C270.403 204.818 270.393 204.818 270.384 204.822L270.296 204.758L244.379 184.622H244.351C244.351 184.622 248.254 142.98 283.825 153.227C283.825 153.227 283.992 153.342 284.299 153.598C285.687 154.666 290.053 158.207 296.472 164.822C296.64 165.001 296.819 165.181 296.998 165.372C297.68 166.066 298.35 166.787 299.016 167.493C303.521 172.31 308.852 178.446 314.734 186.098L314.773 186.137C321.512 194.909 326.368 202.948 329.526 210.061V210.085C332.943 217.816 334.383 224.439 334.1 229.722C334.109 229.816 334.111 229.911 334.108 230.005ZM226.823 158.43C225.77 146.297 231.675 141.903 232.006 141.66C223.609 156.851 239.183 180.137 239.73 181.038C239.283 180.663 227.876 170.559 226.823 158.43Z" fill="#005B7B"/>
<path d="M204.519 156.049C204.082 156.371 203.627 156.666 203.155 156.935L200.42 152.15C206.728 148.924 208.498 143.238 205.723 140.116C204.947 139.262 203.947 138.644 202.836 138.33C200.045 137.485 198.111 138.729 196.8 140.4C195.729 141.852 194.944 143.494 194.487 145.24L193.155 129.881L193.052 128.685C193.052 128.685 190.149 127.246 182.286 128.53C174.423 129.813 172.976 134.156 169.599 132.23C166.221 130.304 164.308 130.459 164.308 130.459C163.347 133.988 160.775 133.988 160.775 133.988C160.166 133.915 159.567 133.769 158.993 133.553C155.344 130.2 154.355 124.383 154.355 124.383C158.183 123.908 158.478 120.224 158.04 117.206C160.161 118.466 163.151 118.553 167.35 115.858C179.395 108.155 191.748 112.325 196.09 112.967C198.028 113.25 200.149 112.569 201.907 111.771C202.135 112.178 202.451 112.528 202.832 112.796C205.763 114.838 208.181 117.532 209.894 120.667C221.198 141.795 208.805 153.015 204.519 156.049Z" fill="#0098CD"/>
<path d="M159.393 249.882H163.939C165.882 249.88 167.746 249.106 169.121 247.732C170.496 246.357 171.269 244.493 171.271 242.549V237.461C171.271 236.998 171.18 236.538 171.002 236.11C170.825 235.681 170.564 235.292 170.236 234.964C169.908 234.637 169.518 234.377 169.09 234.2C168.662 234.023 168.202 233.932 167.738 233.933H140.553C140.554 235.016 140.342 236.088 139.928 237.088C139.514 238.089 138.906 238.998 138.14 239.764C137.374 240.529 136.465 241.136 135.464 241.55C134.463 241.964 133.391 242.176 132.308 242.174H34.0742C34.075 244.218 34.8876 246.178 36.3326 247.623C37.778 249.068 39.7377 249.88 41.7816 249.882H174.955C175.129 249.882 175.301 249.848 175.463 249.782C175.623 249.715 175.77 249.618 175.892 249.495C176.016 249.372 176.113 249.226 176.179 249.065C176.246 248.904 176.28 248.732 176.279 248.558V240.3C176.279 238.696 176.916 237.157 178.051 236.023C179.185 234.889 180.723 234.252 182.328 234.252C183.932 234.252 185.471 234.889 186.605 236.023C187.739 237.157 188.376 238.696 188.376 240.3V248.558C188.376 248.731 188.41 248.903 188.476 249.064C188.542 249.224 188.639 249.37 188.762 249.494C188.884 249.616 189.03 249.714 189.19 249.781C189.351 249.847 189.522 249.882 189.696 249.882H351.371C351.371 249.882 346.435 179.471 301.068 145.224C257.164 112.083 216.06 128.055 213.452 129.124L213.325 129.172" stroke="#001E29" stroke-width="2" stroke-miterlimit="10"/>
<path d="M167.997 146.357C167.996 146.799 167.863 147.232 167.616 147.599C167.369 147.966 167.019 148.253 166.61 148.421C166.2 148.59 165.75 148.633 165.316 148.546C164.882 148.459 164.483 148.245 164.171 147.932C163.858 147.619 163.645 147.22 163.558 146.785C163.472 146.351 163.517 145.901 163.686 145.492C163.855 145.083 164.142 144.734 164.509 144.487C164.877 144.241 165.31 144.109 165.753 144.108C165.926 144.109 166.098 144.13 166.267 144.172C166.035 144.245 165.832 144.391 165.688 144.587C165.545 144.784 165.468 145.021 165.47 145.264C165.468 145.417 165.497 145.568 165.555 145.71C165.613 145.851 165.698 145.98 165.805 146.088C165.913 146.197 166.04 146.283 166.181 146.342C166.322 146.401 166.473 146.432 166.626 146.432C166.905 146.427 167.173 146.324 167.385 146.141C167.596 145.958 167.736 145.707 167.782 145.432C167.919 145.721 167.993 146.037 167.997 146.357Z" fill="#001E29"/>
<path d="M183.548 146.983C183.549 147.428 183.418 147.863 183.172 148.233C182.925 148.603 182.574 148.893 182.163 149.063C181.752 149.234 181.3 149.279 180.863 149.193C180.427 149.107 180.026 148.893 179.711 148.578C179.396 148.264 179.181 147.863 179.094 147.427C179.007 146.991 179.052 146.538 179.222 146.127C179.392 145.716 179.68 145.365 180.05 145.117C180.42 144.87 180.855 144.738 181.3 144.738C181.407 144.737 181.514 144.749 181.618 144.774C181.42 144.865 181.251 145.012 181.133 145.197C181.015 145.381 180.953 145.595 180.953 145.814C180.939 146.121 181.048 146.421 181.255 146.647C181.462 146.874 181.75 147.009 182.057 147.023C182.364 147.036 182.664 146.928 182.89 146.721C183.117 146.513 183.252 146.225 183.265 145.918C183.449 146.243 183.547 146.609 183.548 146.983Z" fill="#001E29"/>
<path d="M201.489 108.613C201.23 110.36 201.552 111.891 202.836 112.8C205.767 114.842 208.184 117.536 209.898 120.671C223.383 145.866 203.155 156.955 203.155 156.955L200.42 152.17C208.295 148.151 209.1 140.28 202.836 138.35C196.572 136.42 194.487 145.26 194.487 145.26L193.052 128.693C193.052 128.693 190.149 127.254 182.286 128.538C174.423 129.821 172.976 134.164 169.599 132.238C166.222 130.312 164.308 130.467 164.308 130.467C163.347 133.996 160.775 133.996 160.775 133.996C153.239 133.035 151.469 122.608 151.469 122.608C155.293 122.13 155.588 118.446 155.153 115.431C157.27 116.691 160.265 116.783 164.463 114.084C176.509 106.38 188.861 110.555 193.199 111.197C196.198 111.632 199.639 109.797 201.489 108.613Z" stroke="#001E29" stroke-width="2" stroke-linecap="round" stroke-linejoin="round"/>
<path d="M208.441 233.558L211.42 232.361L213.653 238.386L213.302 249.319L210.283 249.865L198.828 249.371C198.828 249.371 199.626 242.704 202.062 239.534C204.498 236.365 208.441 233.558 208.441 233.558Z" fill="#0098CD"/>
<path d="M156.285 137.68C156.285 137.68 159.335 132.206 165.755 132.776" stroke="#001E29" stroke-width="2" stroke-miterlimit="10"/>
<path d="M178.328 132.776C178.328 132.776 185.665 131.129 188.232 135.208" stroke="#001E29" stroke-width="2" stroke-miterlimit="10"/>
<path d="M189.693 157.561C189.693 157.561 185.307 155.021 182.098 159.292" stroke="#001E29" stroke-width="2" stroke-miterlimit="10"/>
<path d="M161.979 133.653C161.979 133.653 158.857 170.38 182.139 169.702C186.126 169.586 190.09 166.967 193.877 162.752" stroke="#001E29" stroke-width="2" stroke-miterlimit="10"/>
<path d="M203.153 166.094L193.875 162.752C193.875 162.752 196.176 170.105 207.571 170.667C218.967 171.229 222.79 145.077 214.417 134.555" stroke="#001E29" stroke-width="2" stroke-linejoin="round"/>
<path d="M239.43 239.77C239.43 239.77 230.925 246.671 236.703 249.881" stroke="#001E29" stroke-width="2" stroke-miterlimit="10"/>
<path d="M232.854 233.347C232.854 233.347 218.101 241.696 230.769 249.882" stroke="#001E29" stroke-width="2" stroke-miterlimit="10"/>
<path d="M227.876 226.927C227.876 226.927 208.295 236.097 223.382 249.881" stroke="#001E29" stroke-width="2" stroke-miterlimit="10"/>
<path d="M310.219 249.882C310.219 249.882 333.975 249.882 334.294 226.927C334.613 203.973 288.229 146.333 258.213 138.315C228.197 130.296 226.909 152.27 226.909 153.171C226.909 154.072 225.147 163.538 232.85 173.638C238.799 181.445 265.075 200.934 276.734 209.403C277.162 209.715 277.486 210.149 277.661 210.649C277.836 211.149 277.855 211.69 277.715 212.201C277.576 212.711 277.283 213.168 276.878 213.508C276.473 213.849 275.973 214.058 275.446 214.108L223.883 219.06H223.851C223.365 219.148 205.167 222.505 199.625 228.207C199.625 228.207 196.519 230.508 198.125 234.04C199.732 237.573 204.669 236.409 204.804 236.277" stroke="#001E29" stroke-width="2" stroke-miterlimit="10"/>
<path opacity="0.26" d="M181.306 151.153C184.852 151.153 187.726 148.279 187.726 144.734C187.726 141.188 184.852 138.314 181.306 138.314C177.761 138.314 174.887 141.188 174.887 144.734C174.887 148.279 177.761 151.153 181.306 151.153Z" fill="white"/>
<path opacity="0.26" d="M165.013 150.52C168.558 150.52 171.433 147.646 171.433 144.1C171.433 140.555 168.558 137.681 165.013 137.681C161.468 137.681 158.594 140.555 158.594 144.1C158.594 147.646 161.468 150.52 165.013 150.52Z" fill="white"/>
<path d="M220.501 232.545C218.244 231.915 214.556 231.349 210.756 232.569C208.898 233.167 207.183 234.143 205.72 235.435C205.401 235.715 205.094 235.998 204.799 236.281C204.163 236.904 203.562 237.563 203.001 238.254C202.927 238.346 202.822 238.407 202.706 238.426C201.29 238.621 191.972 240.097 192.02 244.805C192.064 249.036 196.697 249.73 198.292 249.841C198.357 249.847 198.424 249.84 198.486 249.819C198.549 249.798 198.607 249.764 198.656 249.72C198.705 249.676 198.744 249.622 198.771 249.562C198.799 249.502 198.813 249.437 198.814 249.371C198.814 247.864 199.157 243.139 202.885 238.386" stroke="#001E29" stroke-width="2" stroke-miterlimit="10"/>
<path d="M136.546 199.312C137.639 208.119 130.793 212.103 123.309 212.693" stroke="#001E29" stroke-width="2" stroke-miterlimit="10"/>
<path d="M112.432 210.854C109.578 209.313 107.266 206.932 105.81 204.034C104.354 201.136 103.823 197.86 104.29 194.65C105.486 186.177 112.663 179.678 119.688 175.555C134.441 166.899 167.687 173.163 173.273 174.439C177.555 175.42 181.136 172.071 182.587 170.452C182.649 170.383 182.729 170.333 182.818 170.309C182.906 170.284 183.001 170.286 183.089 170.313C183.177 170.341 183.255 170.392 183.315 170.463C183.374 170.533 183.412 170.619 183.424 170.711C186.491 188.654 222.101 213.008 230.338 218.458" stroke="#001E29" stroke-width="2" stroke-miterlimit="10"/>
<path d="M145.532 193.219L133.741 200.535C133.039 200.973 132.252 201.258 131.433 201.373C130.613 201.488 129.778 201.43 128.983 201.202C128.187 200.974 127.448 200.582 126.813 200.051C126.178 199.52 125.661 198.862 125.296 198.119C124.639 196.785 124.509 195.251 124.931 193.825C125.354 192.399 126.299 191.184 127.577 190.424L145.52 179.734" stroke="#001E29" stroke-width="2" stroke-miterlimit="10"/>
<path d="M181.306 151.153C184.852 151.153 187.726 148.279 187.726 144.734C187.726 141.188 184.852 138.314 181.306 138.314C177.761 138.314 174.887 141.188 174.887 144.734C174.887 148.279 177.761 151.153 181.306 151.153Z" stroke="#001E29" stroke-width="2" stroke-miterlimit="10"/>
<path d="M165.013 149.559C168.028 149.559 170.472 147.115 170.472 144.1C170.472 141.085 168.028 138.642 165.013 138.642C161.998 138.642 159.555 141.085 159.555 144.1C159.555 147.115 161.998 149.559 165.013 149.559Z" stroke="white" stroke-width="2" stroke-miterlimit="10"/>
<path d="M165.013 150.52C168.558 150.52 171.433 147.646 171.433 144.1C171.433 140.555 168.558 137.681 165.013 137.681C161.468 137.681 158.594 140.555 158.594 144.1C158.594 147.646 161.468 150.52 165.013 150.52Z" stroke="#001E29" stroke-width="2" stroke-miterlimit="10"/>
<path d="M174.918 144.1H171.434" stroke="#001E29" stroke-width="2" stroke-miterlimit="10"/>
<path d="M174.916 153.171H172.619C172.475 153.171 172.332 153.14 172.201 153.078C172.07 153.017 171.955 152.927 171.863 152.816C171.77 152.705 171.704 152.575 171.668 152.435C171.632 152.295 171.627 152.149 171.654 152.007L173.173 144.1" stroke="#001E29" stroke-width="2" stroke-miterlimit="10"/>
<path d="M128.837 175.081C128.837 175.081 120.652 176.847 117.765 189.208C116.01 196.712 113.602 206.285 111.983 212.649C111.776 213.465 111.757 214.318 111.929 215.142C112.101 215.967 112.459 216.741 112.976 217.406C113.493 218.071 114.156 218.61 114.912 218.98C115.669 219.35 116.5 219.543 117.342 219.543C118.6 219.543 119.82 219.115 120.801 218.328C121.783 217.542 122.467 216.444 122.741 215.217L126.166 199.85" stroke="#001E29" stroke-width="2" stroke-miterlimit="10"/>
<path d="M136.32 203.973C136.32 203.973 144.913 198.837 161.839 203.973C178.764 209.108 198.222 212.593 204.642 198.973" stroke="#001E29" stroke-width="2" stroke-miterlimit="10"/>
<path d="M210.762 232.569C210.762 232.569 216.743 239.395 213.106 249.881" stroke="#001E29" stroke-width="2" stroke-miterlimit="10"/>
<path d="M13.1288 147.685H107.626C110.67 147.681 113.627 148.701 116.02 150.581C118.413 152.462 120.104 155.093 120.82 158.051L135.864 220.356C136.27 222.037 136.289 223.789 135.92 225.478C135.551 227.168 134.804 228.752 133.734 230.111C132.664 231.47 131.3 232.568 129.744 233.323C128.188 234.078 126.481 234.471 124.752 234.471H30.4972C27.4593 234.474 24.5084 233.456 22.118 231.581C19.7278 229.706 18.0365 227.083 17.3154 224.132L2.02835 161.839C1.61555 160.156 1.59071 158.401 1.95575 156.708C2.32078 155.014 3.06611 153.425 4.13541 152.062C5.20467 150.698 6.56994 149.596 8.128 148.837C9.68601 148.079 11.3961 147.685 13.1288 147.685Z" fill="#0098CD"/>
<path d="M16.5676 150.364H105.228C108.084 150.368 110.856 151.33 113.101 153.096C115.345 154.862 116.933 157.33 117.608 160.105L131.731 218.554C132.113 220.131 132.131 221.774 131.785 223.359C131.439 224.944 130.738 226.43 129.735 227.705C128.731 228.98 127.451 230.011 125.992 230.719C124.532 231.428 122.931 231.796 121.308 231.796H32.8633C30.016 231.79 27.2528 230.831 25.0128 229.074C22.7728 227.316 21.1854 224.859 20.503 222.095L6.14892 163.642C5.76132 162.062 5.73796 160.416 6.08062 158.826C6.42324 157.237 7.12293 155.746 8.12667 154.467C9.13042 153.188 10.412 152.154 11.8743 151.443C13.3367 150.732 14.9416 150.363 16.5676 150.364Z" fill="#0098CD"/>
<path d="M13.1288 147.685H107.626C110.67 147.681 113.627 148.701 116.02 150.581C118.413 152.462 120.104 155.093 120.82 158.051L135.864 220.356C136.27 222.037 136.289 223.789 135.92 225.478C135.551 227.168 134.804 228.752 133.734 230.111C132.664 231.47 131.3 232.568 129.744 233.323C128.188 234.078 126.481 234.471 124.752 234.471H30.4972C27.4593 234.474 24.5084 233.456 22.118 231.581C19.7278 229.706 18.0365 227.083 17.3154 224.132L2.02835 161.839C1.61555 160.156 1.59071 158.401 1.95575 156.708C2.32078 155.014 3.06611 153.425 4.13541 152.062C5.20467 150.698 6.56994 149.596 8.128 148.837C9.68601 148.079 11.3961 147.685 13.1288 147.685Z" stroke="#001E29" stroke-width="2" stroke-miterlimit="10"/>
<path d="M57.3831 189.184L51.7491 162.92C51.6323 162.364 51.3281 161.866 50.8875 161.508C50.4469 161.15 49.8967 160.955 49.3289 160.954H21.4502C21.0752 160.955 20.7053 161.041 20.3685 161.207C20.0318 161.372 19.737 161.611 19.5065 161.907C19.276 162.203 19.1158 162.547 19.0381 162.914C18.9603 163.281 18.9671 163.661 19.0578 164.024L25.5769 190.595C25.6578 190.966 25.8305 191.31 26.0793 191.596C26.3026 191.88 26.5873 192.109 26.9118 192.267C27.2364 192.426 27.5924 192.508 27.9533 192.509H28.0051L54.9868 192.19C55.3512 192.185 55.7097 192.099 56.037 191.939C56.3644 191.779 56.6526 191.549 56.8807 191.265C57.1132 190.977 57.2786 190.641 57.3656 190.281C57.4525 189.921 57.4585 189.546 57.3831 189.184ZM20.9199 163.554C20.8997 163.475 20.8977 163.393 20.9143 163.313C20.931 163.234 20.9656 163.159 21.0156 163.095C21.0667 163.029 21.1325 162.974 21.2079 162.937C21.2832 162.9 21.3661 162.88 21.4502 162.88H49.3289C49.4545 162.88 49.5765 162.922 49.6738 163.002C49.7715 163.081 49.8385 163.191 49.8632 163.315L54.1534 183.319C39.8273 169.487 38.2045 185.356 38.2045 185.356C30.1184 181.145 27.7818 185.755 27.104 188.789L20.9199 163.554Z" fill="#E6F7FF"/>
<path d="M28.9705 173.087C30.5255 172.605 31.2631 170.544 30.6252 168.482C29.9872 166.421 28.2049 165.145 26.6379 165.627C25.0709 166.11 24.3453 168.171 24.9872 170.229C25.6292 172.286 27.4194 173.57 28.9705 173.087Z" fill="#E6F7FF"/>
<path d="M35.7979 172.617H44.9446C46.081 172.617 47.2213 172.617 48.3577 172.617H48.5212C48.8414 172.626 49.1595 172.566 49.4542 172.442C49.6583 172.341 49.8314 172.187 49.9566 171.997C50.0814 171.807 50.154 171.588 50.1659 171.36C50.1783 171.133 50.1296 170.907 50.0256 170.704C49.9215 170.502 49.7656 170.331 49.5738 170.209C49.3593 170.111 49.1635 169.976 48.9957 169.81C48.8848 169.635 48.8091 169.44 48.7724 169.236C48.5615 168.659 48.1532 168.174 47.6201 167.868C47.2325 167.608 46.7959 167.428 46.337 167.339C45.878 167.251 45.406 167.256 44.9486 167.354C44.4981 167.468 44.085 167.699 43.7524 168.024C43.4694 168.303 43.4135 168.678 43.1942 168.989C43.0507 169.192 42.959 169.128 42.7636 169.017C42.5682 168.905 42.4606 168.821 42.3011 168.741C41.9865 168.573 41.6599 168.428 41.3242 168.307C40.6404 168.054 39.9111 167.946 39.1831 167.992C37.9032 168.092 36.6272 168.853 36.1807 170.057C35.7784 170.063 35.3912 170.212 35.0886 170.477C34.7859 170.742 34.5882 171.107 34.53 171.505C34.5036 171.658 34.5136 171.816 34.5595 171.965C34.6053 172.114 34.6851 172.25 34.7931 172.362C35.0842 172.571 35.443 172.662 35.7979 172.617Z" fill="#E6F7FF"/>
<path d="M101.372 172.051L100.638 169.032C100.146 167.003 98.9859 165.198 97.3444 163.908C95.7028 162.618 93.6749 161.917 91.5872 161.919H81.5114C80.3619 161.918 79.2275 162.182 78.1964 162.69C77.1657 163.199 76.2662 163.939 75.5676 164.852C74.8695 165.765 74.3914 166.827 74.1705 167.956C73.9496 169.084 73.9919 170.247 74.2945 171.357L75.1279 174.423C75.6601 176.396 76.828 178.138 78.4504 179.38C80.0728 180.622 82.0597 181.294 84.1031 181.293H94.1191C95.2503 181.292 96.3667 181.034 97.3838 180.539C98.401 180.043 99.2921 179.324 99.9907 178.434C100.689 177.544 101.176 176.507 101.416 175.401C101.655 174.295 101.64 173.15 101.372 172.051ZM90.2913 172.796L86.8503 174.913C86.7176 174.997 86.5672 175.05 86.4113 175.066C86.255 175.083 86.0971 175.063 85.95 175.008C85.8029 174.953 85.6701 174.865 85.5629 174.75C85.4556 174.635 85.3763 174.497 85.3312 174.347L84.0353 170.113C83.9807 169.925 83.9811 169.725 84.0353 169.537C84.09 169.35 84.1968 169.181 84.3436 169.052C84.4903 168.922 84.6705 168.837 84.8639 168.806C85.0569 168.775 85.255 168.799 85.4349 168.877L90.2076 170.986C90.3783 171.063 90.5246 171.185 90.6302 171.339C90.7363 171.493 90.7977 171.674 90.8081 171.861C90.8184 172.048 90.777 172.234 90.6889 172.399C90.6003 172.564 90.4684 172.701 90.3073 172.796H90.2913Z" fill="white"/>
<path d="M99.1222 199.163H81.4946C80.6876 199.162 79.8985 198.926 79.223 198.484C78.5476 198.043 78.0153 197.414 77.6907 196.675C77.5903 196.448 77.536 196.203 77.5312 195.954C77.5352 195.473 77.729 195.013 78.0703 194.674C78.4116 194.335 78.8726 194.145 79.3534 194.144H98.0935C97.2123 195.635 97.6588 197.696 99.1222 199.163Z" fill="#E6F7FF"/>
<path d="M110.543 197.353C110.542 197.833 110.351 198.293 110.012 198.632C109.673 198.972 109.213 199.163 108.733 199.163H99.1239C97.6606 197.696 97.214 195.635 98.0952 194.144H106.556C107.362 194.144 108.15 194.378 108.825 194.818C109.5 195.257 110.033 195.883 110.36 196.62C110.47 196.849 110.533 197.099 110.543 197.353Z" fill="#0098CD"/>
<path d="M106.114 199.164C106.064 199.26 106.006 199.352 105.942 199.439C104.682 201.158 101.955 201.317 99.8376 199.77C99.5844 199.587 99.346 199.384 99.1239 199.164C97.6606 197.697 97.214 195.635 98.0952 194.144C98.1447 194.049 98.2017 193.959 98.2667 193.873C99.5147 192.142 102.254 191.991 104.359 193.526C104.614 193.714 104.856 193.921 105.081 194.144C106.556 195.611 106.983 197.673 106.114 199.164Z" fill="white"/>
<path d="M114.957 208.438C114.953 208.919 114.759 209.379 114.418 209.718C114.077 210.057 113.616 210.247 113.135 210.248H43.2707C44.1639 208.749 43.7173 206.696 42.25 205.232H110.994C111.8 205.232 112.589 205.467 113.264 205.908C113.939 206.349 114.47 206.978 114.794 207.716C114.897 207.943 114.953 208.189 114.957 208.438Z" fill="#0098CD"/>
<path d="M43.2729 210.228H34.5688C33.763 210.229 32.9743 209.995 32.2993 209.555C31.6238 209.116 31.0907 208.489 30.765 207.752C30.6625 207.521 30.6079 207.271 30.6055 207.019C30.6047 206.781 30.6513 206.546 30.7422 206.326C30.8332 206.106 30.9663 205.907 31.1346 205.739C31.3028 205.571 31.5026 205.438 31.7227 205.348C31.9424 205.257 32.178 205.212 32.4157 205.212H42.2522C43.7195 206.676 44.1661 208.729 43.2729 210.228Z" fill="#E6F7FF"/>
<path d="M43.2691 210.229C43.2284 210.327 43.1746 210.419 43.1096 210.504C41.8616 212.234 39.1224 212.382 37.0131 210.847C36.7591 210.659 36.5195 210.452 36.2954 210.229C34.8401 208.761 34.3935 206.712 35.2627 205.213C35.3114 205.116 35.3688 205.024 35.4342 204.938C36.6941 203.219 39.4214 203.06 41.5386 204.603C41.7914 204.786 42.0287 204.991 42.2484 205.213C43.7157 206.676 44.1622 208.729 43.2691 210.229Z" fill="white"/>
<path d="M49.4346 221.197H38.374C37.5685 221.197 36.7803 220.963 36.1052 220.523C35.4302 220.083 34.8971 219.458 34.5701 218.721C34.4605 218.499 34.3979 218.256 34.3867 218.008C34.3879 217.526 34.5797 217.064 34.9206 216.723C35.2611 216.382 35.7228 216.191 36.2049 216.189H48.3939C47.5446 217.697 47.9792 219.746 49.4346 221.197Z" fill="#0098CD"/>
<path d="M118.75 219.415C118.744 219.894 118.548 220.35 118.206 220.684C117.863 221.018 117.402 221.203 116.924 221.198H49.436C47.9807 219.73 47.5341 217.681 48.4034 216.182H114.787C115.593 216.181 116.382 216.416 117.057 216.857C117.732 217.298 118.263 217.927 118.587 218.666C118.692 218.902 118.748 219.157 118.75 219.415Z" fill="#E6F7FF"/>
<path d="M56.4217 221.197C56.373 221.294 56.3156 221.386 56.2502 221.472C55.0022 223.203 52.263 223.35 50.1577 221.815C49.9022 221.627 49.6609 221.421 49.436 221.197C47.9807 219.73 47.5341 217.68 48.4034 216.181C48.4532 216.085 48.5106 215.993 48.5748 215.906C49.8348 214.187 52.562 214.036 54.6793 215.571C54.9325 215.754 55.1701 215.958 55.389 216.181C56.8563 217.66 57.3029 219.722 56.4217 221.197Z" fill="white"/>
<g opacity="0.21">
<path opacity="0.21" d="M58.3499 190.145L52.7279 163.881C52.6115 163.325 52.3073 162.827 51.8667 162.47C51.4257 162.112 50.875 161.918 50.3076 161.919H22.4249C22.0473 161.919 21.6749 162.005 21.3362 162.172C20.9975 162.338 20.7015 162.581 20.4712 162.88C20.2428 163.173 20.0845 163.514 20.0085 163.877C19.9325 164.241 19.9408 164.618 20.0326 164.977L26.5517 191.552C26.6314 191.922 26.8029 192.266 27.0501 192.553C27.2742 192.836 27.5597 193.066 27.885 193.223C28.21 193.38 28.5668 193.462 28.9281 193.462H28.9919L55.9695 193.139C56.3332 193.135 56.6912 193.05 57.0178 192.891C57.3447 192.731 57.6322 192.501 57.8595 192.218C58.0887 191.93 58.2514 191.594 58.3364 191.236C58.4209 190.878 58.4257 190.505 58.3499 190.145ZM21.8826 164.519C21.8623 164.44 21.8607 164.357 21.8782 164.277C21.8954 164.198 21.9313 164.123 21.9823 164.06C22.0321 163.993 22.0971 163.938 22.1721 163.901C22.2467 163.864 22.3292 163.844 22.4129 163.845H50.2917C50.4173 163.844 50.5393 163.886 50.6374 163.964C50.7355 164.043 50.8037 164.153 50.83 164.275L55.1203 184.279C40.7901 170.444 39.1713 186.317 39.1713 186.317C31.0892 182.106 28.7486 186.716 28.0748 189.75L21.8826 164.519Z" fill="#E6F7FF"/>
<path opacity="0.21" d="M29.9376 174.048C31.4887 173.566 32.2303 171.504 31.5884 169.447C30.9464 167.389 29.1721 166.105 27.6011 166.588C26.0301 167.07 25.3085 169.132 25.9464 171.193C26.5844 173.255 28.4065 174.546 29.9376 174.048Z" fill="#E6F7FF"/>
<path opacity="0.21" d="M36.7776 173.582H45.9204C47.0607 173.582 48.1971 173.582 49.3374 173.582H49.4969C49.8167 173.591 50.1349 173.531 50.4299 173.406C50.6349 173.306 50.8091 173.153 50.9347 172.963C51.0607 172.773 51.1333 172.553 51.1456 172.325C51.158 172.098 51.1089 171.871 51.0041 171.668C50.8992 171.466 50.7425 171.295 50.5495 171.173C50.3366 171.073 50.1416 170.938 49.9714 170.775C49.8637 170.596 49.7884 170.401 49.7481 170.197C49.5368 169.622 49.1305 169.139 48.5998 168.833C48.2114 168.571 47.7744 168.391 47.3147 168.302C46.855 168.214 46.3821 168.219 45.9243 168.319C45.481 168.433 45.0763 168.665 44.7521 168.988C44.465 169.268 44.4132 169.638 44.1939 169.953C44.0503 170.157 43.9586 170.093 43.7633 169.977C43.5679 169.862 43.4602 169.786 43.3007 169.702C42.9861 169.535 42.6596 169.391 42.3239 169.272C41.64 169.018 40.9108 168.909 40.1827 168.953C38.9028 169.052 37.6269 169.818 37.1763 171.018C36.774 171.024 36.3873 171.174 36.0854 171.44C35.7836 171.706 35.5866 172.071 35.5296 172.469C35.5037 172.623 35.5141 172.78 35.5587 172.928C35.6038 173.077 35.6823 173.213 35.7888 173.327C36.0766 173.528 36.4279 173.619 36.7776 173.582Z" fill="#E6F7FF"/>
<path opacity="0.21" d="M102.353 173.011L101.62 169.997C101.127 167.967 99.9663 166.162 98.324 164.871C96.682 163.58 94.6533 162.879 92.5648 162.88H82.4731C81.3248 162.879 80.1916 163.143 79.1621 163.651C78.1322 164.159 77.2335 164.898 76.5353 165.81C75.8371 166.721 75.3587 167.782 75.137 168.908C74.9149 170.035 74.9559 171.198 75.2562 172.306L76.0895 175.376C76.6226 177.349 77.7909 179.092 79.4141 180.333C81.0373 181.575 83.0249 182.248 85.0688 182.246H95.0847C96.2163 182.246 97.3331 181.99 98.3511 181.496C99.369 181.002 100.262 180.283 100.962 179.394C101.661 178.505 102.15 177.468 102.391 176.363C102.633 175.257 102.619 174.112 102.353 173.011ZM91.2689 173.749L87.816 175.878C87.6836 175.963 87.5337 176.015 87.3778 176.031C87.2215 176.048 87.064 176.028 86.9173 175.973C86.7701 175.918 86.6382 175.83 86.5313 175.715C86.4241 175.6 86.3451 175.462 86.3008 175.312L85.0249 171.074C84.9715 170.886 84.9723 170.687 85.0273 170.5C85.0823 170.313 85.1892 170.145 85.3355 170.016C85.4823 169.887 85.6621 169.802 85.8547 169.771C86.0473 169.741 86.245 169.765 86.4245 169.842L91.1613 171.947C91.3292 172.025 91.4731 172.147 91.5776 172.3C91.6816 172.452 91.7426 172.631 91.7538 172.816C91.765 173.001 91.7255 173.185 91.6402 173.35C91.5548 173.514 91.4264 173.652 91.2689 173.749Z" fill="#E6F7FF"/>
<path opacity="0.21" d="M100.086 200.125H82.4587C81.6524 200.123 80.8638 199.887 80.1883 199.446C79.5133 199.006 78.9806 198.378 78.6548 197.641C78.5304 197.365 78.4778 197.063 78.5017 196.762C78.5252 196.461 78.6249 196.17 78.7904 195.918C78.9563 195.665 79.1831 195.459 79.4503 195.317C79.717 195.176 80.0153 195.104 80.3175 195.109H99.0575C98.1803 196.596 98.619 198.661 100.086 200.125Z" fill="#E6F7FF"/>
<path opacity="0.21" d="M111.484 198.315C111.484 198.794 111.294 199.254 110.955 199.593C110.617 199.933 110.157 200.124 109.678 200.125H100.089C98.6214 198.662 98.1748 196.596 99.056 195.109H107.521C108.327 195.108 109.115 195.342 109.79 195.782C110.466 196.221 110.999 196.848 111.324 197.585C111.427 197.815 111.481 198.063 111.484 198.315Z" fill="#0098CD"/>
<path opacity="0.21" d="M107.074 200.125C107.027 200.222 106.97 200.314 106.902 200.4C105.643 202.118 102.916 202.278 100.798 200.735C100.546 200.55 100.309 200.346 100.089 200.125C98.6214 198.661 98.1748 196.596 99.056 195.109C99.1058 195.012 99.1644 194.92 99.2314 194.834C100.479 193.103 103.219 192.956 105.324 194.491C105.579 194.678 105.82 194.885 106.046 195.109C107.501 196.576 107.947 198.625 107.074 200.125Z" fill="white"/>
<path opacity="0.21" d="M115.918 209.383C115.914 209.864 115.72 210.323 115.379 210.661C115.037 210.999 114.576 211.189 114.096 211.189H44.2356C45.1287 209.69 44.6821 207.641 43.2148 206.173H111.955C112.762 206.173 113.552 206.409 114.228 206.85C114.903 207.293 115.435 207.922 115.759 208.661C115.861 208.889 115.915 209.134 115.918 209.383Z" fill="#0098CD"/>
<path opacity="0.21" d="M44.234 211.189H35.5258C34.7208 211.189 33.9329 210.955 33.2579 210.516C32.5828 210.078 32.0493 209.453 31.722 208.717C31.6215 208.486 31.5677 208.236 31.5625 207.984C31.5625 207.503 31.7531 207.043 32.0928 206.704C32.4321 206.364 32.8926 206.173 33.3727 206.173H43.2132C44.6805 207.641 45.1271 209.69 44.234 211.189Z" fill="#E6F7FF"/>
<path opacity="0.21" d="M44.2329 211.19C44.1918 211.289 44.1368 211.382 44.0694 211.465C42.8214 213.195 40.0822 213.347 37.9769 211.812C37.7213 211.622 37.4801 211.414 37.2552 211.19C35.7999 209.726 35.3533 207.673 36.2265 206.174C36.2732 206.076 36.331 205.984 36.398 205.899C37.6579 204.18 40.3852 204.02 42.5024 205.567C42.7532 205.752 42.9905 205.955 43.2122 206.174C44.6795 207.641 45.126 209.691 44.2329 211.19Z" fill="white"/>
<path opacity="0.21" d="M50.3953 222.174H39.3188C38.5138 222.173 37.7267 221.939 37.0516 221.5C36.3766 221.061 35.8431 220.437 35.515 219.702C35.4149 219.474 35.3607 219.229 35.3555 218.98C35.3575 218.498 35.55 218.035 35.8914 217.694C36.2327 217.353 36.6948 217.16 37.1776 217.158H49.3666C48.4934 218.657 48.94 220.711 50.3953 222.174Z" fill="#0098CD"/>
<path opacity="0.21" d="M119.714 220.376C119.714 220.613 119.666 220.848 119.575 221.066C119.484 221.285 119.35 221.484 119.182 221.651C119.014 221.818 118.814 221.95 118.595 222.04C118.376 222.129 118.141 222.175 117.904 222.174H50.3959C48.9405 220.711 48.494 218.657 49.3672 217.158H115.747C116.554 217.158 117.344 217.393 118.019 217.835C118.695 218.277 119.227 218.907 119.551 219.646C119.654 219.876 119.71 220.124 119.714 220.376Z" fill="#E6F7FF"/>
<path opacity="0.21" d="M57.3855 222.174C57.3357 222.271 57.2771 222.363 57.2101 222.449C55.9621 224.18 53.2228 224.331 51.1176 222.796C50.862 222.607 50.6207 222.399 50.3959 222.174C48.9405 220.711 48.494 218.657 49.3672 217.158C49.4142 217.06 49.4716 216.968 49.5386 216.883C50.7986 215.164 53.5258 215.017 55.6431 216.552C55.8939 216.737 56.1311 216.939 56.3528 217.158C57.8201 218.625 58.2667 220.687 57.3855 222.174Z" fill="white"/>
</g>
</svg>
