<svg width="384" height="252" viewBox="0 0 384 252" fill="none" xmlns="http://www.w3.org/2000/svg">
<path d="M305.54 151.771L304.789 158.934C302.837 163.599 300.886 168.261 298.936 172.92C298.256 174.556 297.572 176.189 296.885 177.819C296.574 178.582 296.132 179.285 295.58 179.896C295.553 179.937 295.516 179.971 295.473 179.996C295.431 180.021 295.383 180.036 295.334 180.04C295.169 180.04 295.109 179.82 295.097 179.654C295.003 177.888 294.792 176.13 294.465 174.391C292.638 165.995 282.891 162.918 275.245 163.109C272.186 163.155 269.172 163.853 266.404 165.156C262.412 167.088 260.856 172.462 260.644 172.661L260.475 173.352L257.737 184.757C257.161 187.3 256.72 188.644 254.372 189.322C254.296 189.347 251.956 190.593 251.88 190.593C250.973 190.847 253.456 190.301 252.473 190.135L249.358 189.648L248.032 189.343L228.676 184.761C229.426 184.889 230.193 185.028 230.973 185.185L235.465 186.258L234.279 180.561C231.189 162.829 236.309 146.741 245.031 138.006C247.328 135.709 248.468 135.12 251.147 133.59L252.651 137.154C252.651 137.154 268.044 141.744 271.672 127.66C273.139 127.788 275.957 127.766 277.411 128.084C284.989 129.673 291.832 133.712 296.885 139.578C297.33 140.087 297.767 140.612 298.199 141.146L298.428 141.426C298.695 141.761 298.979 142.104 299.246 142.447L299.437 142.719C301.652 145.61 303.69 148.633 305.54 151.771Z" fill="#353642"/>
<path d="M122.637 77.6371C125.078 65.4311 135.445 53.6066 165.052 50.8984C230.863 44.8844 195.288 26.7407 216.716 6.8848C238.144 -12.9711 319.166 19.6968 297.97 70.7161C276.775 121.735 346.743 65.109 376.377 129.733C380.67 139.111 382.737 149.354 382.416 159.663C382.042 170.555 379.238 181.226 374.207 190.894C364.743 209.381 347.163 225.851 321.738 236.056C317.986 237.585 314.059 238.959 309.956 240.18" stroke="#D7D7D7" stroke-width="2" stroke-miterlimit="10"/>
<path d="M331.103 178.023C330.59 184.011 326.53 184.986 326.53 184.986C323.097 187.016 317.825 184.833 316.761 181.027C316.745 180.987 316.736 180.944 316.736 180.9C315.888 177.641 314.235 173.454 312.014 168.872C307.734 158.514 302.169 148.071 295.032 139.811C289.978 133.945 283.135 129.906 275.557 128.317C275.532 128.317 275.519 128.292 275.494 128.292C265.445 125.266 260.554 119.086 258.435 113.161C258.435 113.161 258.435 113.161 258.435 113.136C257.528 109.394 256.604 105.745 257.1 103.537C257.948 99.6671 258.372 95.484 257.316 94.6363C255.99 93.5259 253.591 94.3481 247.488 95.5772C242.203 96.6622 239.384 96.0477 238.749 92.8182C238.648 92.3172 238.597 91.8073 238.596 91.2966C238.571 91.6187 237.325 90.3388 237.265 90.644C236.867 92.2926 236.07 92.9538 234.333 93.6785C231.752 94.7508 230.696 98.8915 230.315 101.651C229.916 104.588 231.239 108.639 232.286 111.398C230.946 109.868 229.412 110.046 227.013 110.975C226.411 111.203 224.894 111.14 223.695 110.72C223.864 110.575 224.064 110.469 224.28 110.411C224.665 110.284 221.868 108.894 222.275 108.805C226.348 107.885 228.632 104.49 228.149 101.502C226.95 93.9794 228.547 85.1301 233.629 79.2687C239.232 72.8224 248.374 71.4831 256.113 74.4329C262.19 76.7427 267.937 81.481 270.044 87.8001C270.044 87.8256 270.044 87.851 270.069 87.8764C270.337 88.68 270.542 89.5035 270.683 90.3388C271.459 95.039 269.802 99.8027 268.882 104.448C268.552 106.122 269.391 107.948 269.569 109.275C270.59 117.243 279.787 119.493 287.064 122.875C302.36 130 314.85 142.18 323.25 156.993C328.827 166.8 330.819 173.488 331.103 178.023Z" fill="#989898"/>
<path d="M250.467 132.009C250.302 132.098 250.137 132.187 249.984 132.288C247.237 133.863 244.712 135.796 242.474 138.035C233.756 146.77 228.636 162.859 231.726 180.591L232.913 186.258" stroke="black" stroke-width="2" stroke-miterlimit="10"/>
<path d="M327.604 250.991C327.605 237.754 326.461 224.541 324.183 211.5C322.66 202.652 320.562 193.913 317.902 185.338C316.305 180.129 314.351 174.509 312.028 168.868C309.871 163.589 307.38 158.453 304.569 153.492C301.844 148.634 298.654 144.051 295.046 139.807C289.992 133.941 283.149 129.902 275.571 128.313C274.118 128.005 272.648 127.784 271.168 127.652" stroke="black" stroke-width="2" stroke-miterlimit="10"/>
<path d="M170.951 135.785L170.735 135.747C168.147 135.313 165.491 135.536 163.011 136.395C160.531 137.254 158.306 138.722 156.541 140.663L142.047 156.455L140.351 158.319C140.246 158.434 140.147 158.554 140.055 158.68" stroke="black" stroke-width="2" stroke-miterlimit="10"/>
<path d="M150.02 162.803L157.975 153.98L157.987 153.967" stroke="black" stroke-width="2" stroke-miterlimit="10"/>
<path d="M219.219 208.381L256.638 221.566C260.241 222.836 264.076 223.315 267.881 222.97C271.687 222.626 275.373 221.466 278.69 219.57C282.007 217.673 284.877 215.085 287.104 211.98C289.331 208.876 290.864 205.329 291.598 201.579L300.452 156.383C300.905 154.062 300.884 151.674 300.39 149.361C299.896 147.048 298.94 144.86 297.579 142.926C297.198 142.382 296.785 141.861 296.341 141.367" stroke="black" stroke-width="2" stroke-miterlimit="10"/>
<path d="M194.456 206.559C189.692 209.775 186.191 219.544 184.331 225.957C184.012 227.032 183.353 227.975 182.453 228.645C181.553 229.314 180.46 229.674 179.338 229.669C178.579 229.669 177.829 229.504 177.139 229.186C176.081 228.69 175.221 227.852 174.698 226.807C174.175 225.762 174.019 224.571 174.257 223.427C177.372 208.194 188.366 178.125 226.132 184.753C226.886 184.88 227.654 185.02 228.429 185.177L232.913 186.258L245.488 189.322L248.878 190.14C250.165 190.452 251.513 190.403 252.773 190C252.851 189.985 252.928 189.963 253.002 189.936C254.164 189.538 255.206 188.853 256.032 187.944C256.858 187.036 257.441 185.934 257.728 184.74L260.588 172.84L260.754 172.149L264.5 156.59" stroke="black" stroke-width="2" stroke-miterlimit="10"/>
<path d="M176.037 157.79H163.221C161.759 157.79 160.358 157.209 159.324 156.176C158.291 155.142 157.711 153.741 157.711 152.28C157.711 150.819 158.291 149.417 159.324 148.384C160.358 147.351 161.759 146.77 163.221 146.77H181.377" stroke="black" stroke-width="2" stroke-miterlimit="10"/>
<path d="M166.2 157.785C166.018 160.032 165.161 161.693 163.898 162.842C160.644 165.808 154.68 165.469 150.531 163.439" stroke="black" stroke-width="2" stroke-miterlimit="10"/>
<path d="M142.064 156.45C138.39 152.009 139.14 145.986 141.992 141.333C150.083 128.127 168.57 130.661 180.56 136.149C190.274 140.583 198.784 147.245 207.07 153.89C211.117 157.137 215.093 160.519 218.937 164.062C219.642 164.701 220.484 165.171 221.397 165.437C222.311 165.704 223.273 165.76 224.211 165.601C225.15 165.442 226.04 165.072 226.815 164.519C227.59 163.966 228.229 163.245 228.684 162.409C230.803 158.497 233.096 154.23 233.529 153.047" stroke="black" stroke-width="2" stroke-miterlimit="10"/>
<path d="M163.902 162.842C163.902 162.842 183.021 173.212 197.223 188.114" stroke="black" stroke-width="2" stroke-miterlimit="10"/>
<path d="M189.791 212.182C187.671 215.802 189.494 221.117 193.499 222.388C198.614 224.038 204.022 224.58 209.363 223.977C215.19 223.299 219.064 218.489 221.615 212.979C221.799 212.569 221.896 212.125 221.898 211.676C221.899 211.226 221.807 210.781 221.625 210.37C221.444 209.958 221.178 209.59 220.845 209.288C220.511 208.986 220.118 208.758 219.691 208.618C218.92 208.364 218.081 208.41 217.343 208.747C216.605 209.084 216.02 209.687 215.707 210.436C214.859 212.394 213.55 214.844 211.812 215.946" stroke="black" stroke-width="2" stroke-miterlimit="10"/>
<path d="M199.77 211.504C199.77 211.504 194.536 217.133 198.664 223.092C198.846 223.342 199.059 223.567 199.3 223.761" stroke="black" stroke-width="2" stroke-miterlimit="10"/>
<path d="M206.675 212.433C206.675 212.433 201.835 223.325 208.044 224.122" stroke="black" stroke-width="2" stroke-miterlimit="10"/>
<path d="M378.511 251H78.7695" stroke="black" stroke-width="2" stroke-miterlimit="10"/>
<path d="M196.688 230.474H166.796C166.493 233.296 165.156 235.906 163.043 237.801C160.93 239.697 158.191 240.743 155.353 240.739H54.8828C54.8883 243.457 55.9703 246.061 57.8915 247.982C59.8131 249.904 62.4175 250.986 65.135 250.992H196.688C199.41 250.99 202.02 249.911 203.948 247.99C205.876 246.068 206.964 243.461 206.974 240.739V233.848C206.974 232.949 206.617 232.086 205.981 231.451C205.345 230.815 204.483 230.458 203.584 230.458L196.688 230.474Z" stroke="black" stroke-width="2" stroke-miterlimit="10"/>
<path d="M150.532 163.439C151.413 164.658 152.047 166.037 152.397 167.499L166.557 226.554C166.87 227.836 166.951 229.164 166.798 230.475C166.495 233.296 165.158 235.906 163.045 237.802C160.933 239.696 158.194 240.743 155.355 240.739H53.0201C50.4356 240.739 47.9266 239.868 45.8974 238.267C43.8681 236.667 42.4373 234.429 41.8355 231.916L27.7011 172.865C27.2947 171.174 27.2773 169.413 27.6499 167.715C28.0224 166.016 28.7751 164.424 29.852 163.059C30.9285 161.693 32.3008 160.589 33.8656 159.831C35.4303 159.073 37.1468 158.679 38.8857 158.68H141.212C142.894 158.676 144.555 159.044 146.077 159.757C147.599 160.47 148.945 161.51 150.019 162.803L150.532 163.439Z" stroke="black" stroke-width="2" stroke-miterlimit="10"/>
<path d="M134.501 89.9446C133.848 89.1775 133.162 88.4401 132.445 87.7238C128.426 83.6908 123.65 80.4914 118.391 78.3091C113.132 76.1273 107.493 75.0059 101.799 75.0093H48.1522C42.4598 75.0072 36.8226 76.1265 31.563 78.304C26.3039 80.4816 21.5249 83.6742 17.4999 87.6997C13.475 91.7251 10.2827 96.5041 8.1058 101.764C5.92882 107.024 4.80972 112.661 4.81252 118.353V118.663C4.80705 122.701 5.83566 126.674 7.80044 130.203C10.0083 132.452 12.6437 134.236 15.5515 135.45C18.4593 136.666 21.5806 137.286 24.7319 137.277H77.3278C78.9328 137.277 80.4725 137.914 81.6075 139.049C82.7425 140.184 83.3799 141.724 83.3799 143.329C83.3821 144.936 84.022 146.476 85.1591 147.612C86.2962 148.747 87.8377 149.385 89.4448 149.385H89.5762L102.562 149.055C102.562 148.927 102.537 148.813 102.537 148.699C101.414 148.312 100.44 147.586 99.7508 146.619C99.0616 145.652 98.6917 144.495 98.6925 143.308V143.028C98.6938 141.423 99.3316 139.884 100.466 138.749C101.601 137.615 103.14 136.977 104.745 136.976H117.548C123.843 136.976 129.88 134.475 134.331 130.024C138.781 125.573 141.282 119.536 141.282 113.242C141.304 104.986 138.95 96.8987 134.501 89.9446ZM41.5999 115.056C39.5474 115.057 37.5406 114.449 35.8339 113.309C34.1267 112.169 32.7964 110.548 32.0106 108.652C31.2253 106.756 31.0197 104.669 31.4202 102.656C31.8207 100.643 32.8091 98.794 34.2611 97.3428C35.7127 95.8917 37.5622 94.9042 39.5753 94.5041C41.5885 94.1044 43.6749 94.3108 45.5711 95.0974C47.4668 95.884 49.0871 97.2148 50.2259 98.9224C51.3651 100.63 51.9725 102.637 51.9708 104.689C51.9674 107.438 50.8735 110.074 48.9294 112.017C46.985 113.961 44.3492 115.053 41.5999 115.056ZM75.4503 115.056C73.3982 115.055 71.3922 114.446 69.6864 113.305C67.9809 112.164 66.6514 110.543 65.8673 108.646C65.0829 106.75 64.8786 104.663 65.2799 102.651C65.6813 100.638 66.6709 98.7901 68.1229 97.3398C69.5749 95.8895 71.424 94.9025 73.4372 94.5037C75.4503 94.1044 77.5363 94.3117 79.4316 95.0983C81.3274 95.8849 82.9468 97.2161 84.0856 98.9232C85.2244 100.63 85.8313 102.637 85.8296 104.689C85.8296 106.051 85.5609 107.401 85.0392 108.659C84.5175 109.918 83.7529 111.061 82.7887 112.024C81.825 112.987 80.6806 113.75 79.4215 114.27C78.1623 114.791 76.8129 115.058 75.4503 115.056ZM107.69 115.056C105.638 115.054 103.633 114.444 101.928 113.303C100.222 112.161 98.8938 110.54 98.1102 108.643C97.3265 106.747 97.1227 104.66 97.5245 102.648C97.9267 100.636 98.9163 98.788 100.368 97.3386C101.821 95.8887 103.67 94.902 105.683 94.5032C107.696 94.1048 109.782 94.3117 111.677 95.0987C113.572 95.8853 115.191 97.2165 116.33 98.9236C117.469 100.631 118.075 102.637 118.074 104.689C118.074 106.052 117.805 107.401 117.283 108.66C116.761 109.919 115.996 111.063 115.032 112.026C114.067 112.988 112.922 113.751 111.663 114.271C110.403 114.791 109.053 115.058 107.69 115.056Z" fill="#E4E4E4"/>
<path d="M141.284 113.246C141.284 119.541 138.783 125.578 134.332 130.029C129.881 134.48 123.845 136.98 117.55 136.98H104.755C103.151 136.981 101.613 137.618 100.478 138.753C99.3437 139.886 98.705 141.424 98.7029 143.028V143.308C98.702 144.495 99.072 145.652 99.7611 146.619C100.45 147.586 101.424 148.313 102.547 148.699C103.138 148.904 103.76 149.007 104.386 149.004L102.572 149.055L89.5781 149.385H89.4382C87.8319 149.385 86.2913 148.748 85.1542 147.613C84.0171 146.479 83.3767 144.939 83.3734 143.333C83.3734 141.728 82.7359 140.188 81.6005 139.053C80.4655 137.918 78.9262 137.281 77.3212 137.281H24.7338C18.4392 137.281 12.4025 134.781 7.95147 130.33C3.50053 125.879 1 119.842 1 113.547V113.238C1.00055 107.549 2.12159 101.916 4.29904 96.6606C6.4765 91.4052 9.66781 86.6301 13.6907 82.6081C17.7136 78.586 22.4893 75.3959 27.7451 73.2192C33.0008 71.0429 38.6342 69.9227 44.3227 69.9236H97.9527C109.443 69.9244 120.463 74.4889 128.588 82.6131C136.714 90.7373 141.281 101.756 141.284 113.246Z" stroke="black" stroke-width="2" stroke-miterlimit="10"/>
<path d="M275.558 128.3C275.533 128.3 275.52 128.275 275.494 128.275C265.446 125.249 260.555 119.069 258.436 113.144C258.436 113.144 258.436 113.144 258.436 113.119C256.779 108.499 256.817 104.028 257.414 101.358C257.772 99.9438 257.999 98.4999 258.092 97.0436C258.232 92.9199 255.206 93.9286 246.552 95.6535C242.576 96.4588 240.033 94.95 238.762 92.8055C238.638 92.6185 238.531 92.4215 238.44 92.2163C237.847 90.9682 237.601 89.5832 237.728 88.207" stroke="black" stroke-width="2" stroke-miterlimit="10"/>
<path d="M232.748 111.958C232.595 111.742 232.439 111.534 232.286 111.369C230.947 109.839 229.413 110.017 227.014 110.945C226.412 111.174 224.895 111.11 223.695 110.691C222.687 110.331 221.932 109.708 222.275 108.775C222.364 108.583 222.495 108.414 222.659 108.281C222.823 108.148 223.015 108.055 223.221 108.008C223.62 107.907 224.025 107.826 224.433 107.766C228.548 106.847 227.628 102.083 227.128 99.0951C225.916 91.5766 227.527 82.7272 232.659 76.8658C238.313 70.4196 247.56 69.076 255.371 72.0258C262.242 74.6196 268.705 80.2479 270.044 87.7707C270.044 87.7961 270.044 87.8215 270.069 87.847C270.095 87.8724 270.069 87.9105 270.069 87.936C270.862 92.6361 270.069 97.7304 269.15 102.38C268.599 105.135 268.806 107.385 269.574 109.246C271.977 115.336 280.084 117.459 286.62 120.473C302.085 127.597 314.685 139.777 323.178 154.59C329.883 166.338 331.472 173.564 331.104 178.023C330.591 184.011 326.531 184.986 326.531 184.986C323.098 187.016 317.821 184.834 316.762 181.028C316.746 180.987 316.737 180.944 316.736 180.901C315.889 177.641 314.236 173.454 312.015 168.873" stroke="black" stroke-width="2" stroke-miterlimit="10"/>
<path d="M237.712 88.207C237.712 90.4745 236.644 92.7122 234.322 93.6658C231.711 94.7423 230.652 97.5777 230.27 100.337C229.737 104.377 230.606 108.477 232.733 111.954C234.703 115.225 237.912 118.832 242.455 118.832C250.779 118.832 254.347 114.819 254.347 114.819" stroke="black" stroke-width="2" stroke-miterlimit="10"/>
<path d="M246.353 101.638C247.135 101.638 247.769 101.004 247.769 100.222C247.769 99.4407 247.135 98.8066 246.353 98.8066C245.572 98.8066 244.938 99.4407 244.938 100.222C244.938 101.004 245.572 101.638 246.353 101.638Z" fill="black"/>
<path d="M233.9 102.464C234.682 102.464 235.315 101.831 235.315 101.049C235.315 100.267 234.682 99.6333 233.9 99.6333C233.118 99.6333 232.484 100.267 232.484 101.049C232.484 101.831 233.118 102.464 233.9 102.464Z" fill="black"/>
<path d="M240.007 98.8916C240.007 98.8916 239.299 104.482 239.583 105.249C239.867 106.016 241.638 105.139 241.638 105.139" stroke="black" stroke-width="2" stroke-miterlimit="10"/>
<path d="M242.633 110.03C245.663 111.144 248.791 109.724 249.706 106.999" stroke="black" stroke-width="2" stroke-miterlimit="10"/>
<path d="M253.679 102.268C255.735 99.3583 254.985 95.293 252.005 93.1871C249.024 91.0816 244.942 91.7334 242.886 94.6433C240.831 97.5528 241.58 101.619 244.561 103.724C247.541 105.83 251.624 105.178 253.679 102.268Z" stroke="black" stroke-width="2" stroke-miterlimit="10"/>
<path d="M237.125 103.1C239.18 100.19 238.431 96.1244 235.45 94.0189C232.47 91.9133 228.387 92.5652 226.332 95.4751C224.276 98.3846 225.026 102.45 228.006 104.556C230.987 106.661 235.069 106.01 237.125 103.1Z" stroke="black" stroke-width="2" stroke-miterlimit="10"/>
<path d="M231.612 94.7931C232.789 94.7897 233.924 95.2318 234.788 96.0303C235.653 96.8292 236.184 97.9251 236.274 99.0991C236.321 99.6823 236.25 100.269 236.065 100.824C235.88 101.379 235.585 101.89 235.197 102.329C234.805 102.773 234.328 103.133 233.793 103.388C233.259 103.643 232.678 103.787 232.086 103.812H231.849C230.671 103.815 229.536 103.373 228.671 102.573C227.806 101.773 227.276 100.676 227.187 99.5017C227.141 98.9186 227.213 98.3316 227.399 97.7768C227.584 97.222 227.88 96.7101 228.268 96.2723C228.66 95.8294 229.137 95.47 229.67 95.2148C230.204 94.9601 230.784 94.8152 231.374 94.7889H231.612V94.7931ZM231.612 93.8311H231.328C230.613 93.8628 229.913 94.0383 229.267 94.346C228.622 94.6541 228.044 95.0885 227.57 95.6238C227.096 96.1591 226.734 96.7842 226.506 97.4619C226.278 98.1396 226.188 98.8563 226.242 99.5696C226.357 100.983 226.998 102.301 228.039 103.263C229.08 104.226 230.444 104.762 231.862 104.766H232.146C232.86 104.733 233.561 104.558 234.206 104.25C234.852 103.943 235.429 103.508 235.903 102.973C236.378 102.438 236.739 101.812 236.967 101.135C237.196 100.457 237.285 99.7404 237.232 99.0271C237.117 97.6141 236.475 96.296 235.435 95.3335C234.394 94.371 233.029 93.8349 231.612 93.8311Z" fill="white"/>
<path d="M241.745 98.8025L238.27 98.9805" stroke="black" stroke-width="2" stroke-miterlimit="10"/>
<path opacity="0.53" d="M252.851 101.684C254.592 99.2195 253.957 95.7764 251.434 93.9938C248.911 92.2112 245.454 92.7635 243.713 95.2275C241.972 97.692 242.606 101.135 245.13 102.918C247.653 104.7 251.11 104.148 252.851 101.684Z" fill="white"/>
<path opacity="0.53" d="M236.3 102.516C238.042 100.051 237.407 96.6084 234.884 94.8258C232.36 93.0428 228.903 93.5954 227.162 96.0595C225.421 98.524 226.056 101.967 228.579 103.749C231.103 105.532 234.559 104.98 236.3 102.516Z" fill="white"/>
<path d="M244.934 118.832L252.651 137.167C252.651 137.167 267.54 141.172 271.159 127.084" stroke="black" stroke-width="2" stroke-miterlimit="10"/>
<path d="M98.5013 213.856C104.33 212.018 107.381 205.218 105.316 198.669C103.251 192.119 96.8514 188.299 91.0226 190.137C85.1943 191.975 82.1432 198.774 84.2085 205.324C86.2733 211.873 92.6725 215.693 98.5013 213.856Z" fill="#E4E4E4"/>
<path d="M242.873 250.992C242.707 236.069 240.075 221.324 238.863 215.306" stroke="black" stroke-width="2" stroke-miterlimit="10"/>
</svg>
