<svg width="330" height="297" viewBox="0 0 330 297" fill="none" xmlns="http://www.w3.org/2000/svg">
<path d="M270.079 191.368H189.997C188.281 191.368 186.891 192.759 186.891 194.475V250.927C186.891 252.643 188.281 254.033 189.997 254.033H270.079C271.795 254.033 273.186 252.643 273.186 250.927V194.475C273.186 192.759 271.795 191.368 270.079 191.368Z" fill="#989898"/>
<path d="M266.04 194.303H194.04C192.325 194.303 190.934 195.694 190.934 197.41V247.993C190.934 249.709 192.325 251.1 194.04 251.1H266.04C267.756 251.1 269.147 249.709 269.147 247.993V197.41C269.147 195.694 267.756 194.303 266.04 194.303Z" fill="#989898"/>
<path d="M308.371 254.034H279.481C278.654 254.034 277.836 253.871 277.073 253.554C276.31 253.238 275.616 252.775 275.032 252.19C274.448 251.606 273.985 250.912 273.669 250.149C273.353 249.385 273.191 248.567 273.191 247.741V202.694C273.191 202.289 273.272 201.888 273.429 201.515C273.586 201.141 273.816 200.803 274.105 200.52C274.395 200.237 274.738 200.014 275.114 199.865C275.491 199.716 275.893 199.643 276.298 199.652L292.369 199.796C292.801 199.806 293.225 199.907 293.615 200.093C294.005 200.28 294.351 200.546 294.629 200.876L314.098 223.916C317.181 227.088 318.904 231.337 318.901 235.76V243.5C318.902 244.883 318.63 246.253 318.101 247.531C317.572 248.81 316.797 249.971 315.819 250.949C314.841 251.928 313.68 252.703 312.402 253.233C311.124 253.762 309.754 254.034 308.371 254.034Z" fill="#989898"/>
<path d="M230.036 240.872C240.071 240.872 248.206 232.738 248.206 222.703C248.206 212.668 240.071 204.534 230.036 204.534C220.002 204.534 211.867 212.668 211.867 222.703C211.867 232.738 220.002 240.872 230.036 240.872Z" fill="#E4E4E4"/>
<path d="M279.48 222.588V207.277C279.48 206.823 279.66 206.388 279.981 206.068C280.302 205.747 280.737 205.567 281.19 205.567H289.784C290.046 205.567 290.305 205.628 290.54 205.744C290.775 205.86 290.981 206.028 291.141 206.236L302.916 221.54C303.112 221.793 303.232 222.096 303.264 222.414C303.296 222.732 303.237 223.053 303.096 223.34C302.955 223.627 302.736 223.868 302.464 224.037C302.193 224.206 301.879 224.294 301.559 224.294H281.201C280.976 224.296 280.753 224.252 280.544 224.167C280.336 224.082 280.146 223.957 279.986 223.798C279.826 223.64 279.699 223.451 279.613 223.244C279.526 223.036 279.481 222.813 279.48 222.588Z" fill="white"/>
<path d="M194.234 253.9V254.023C194.234 257.75 195.715 261.325 198.351 263.961C200.987 266.597 204.561 268.077 208.289 268.077C212.016 268.077 215.591 266.597 218.227 263.961C220.863 261.325 222.343 257.75 222.343 254.023" stroke="#D7D7D7" stroke-width="2" stroke-miterlimit="10"/>
<path d="M279.48 254.022C279.48 257.75 280.961 261.324 283.596 263.959C286.232 266.595 289.806 268.075 293.533 268.075C297.26 268.075 300.834 266.595 303.47 263.959C306.105 261.324 307.586 257.75 307.586 254.022" fill="#989898"/>
<path d="M279.516 123.825C291.201 121.327 303.783 125.838 312.34 134.175C320.898 142.513 325.66 154.271 326.888 166.154C328.864 185.065 323.565 206.91 313.14 222.793" stroke="#D7D7D7" stroke-width="2" stroke-miterlimit="10"/>
<path d="M174.918 48.0197C194.495 40.9637 217.963 47.2205 236.323 95.8997C242.321 111.808 252.029 129.117 279.668 123.78" stroke="#D7D7D7" stroke-width="2" stroke-miterlimit="10"/>
<path d="M100.031 71.1969C100.031 71.1969 121.883 68.6769 122.016 95.4933L183.188 77.6805L192.792 74.6601C192.792 74.6601 179.012 57.9417 163.114 55.0653C163.285 56.69 163.607 58.2952 164.075 59.8605C164.896 62.7405 162.174 64.4325 158.398 65.5053C154.622 66.5781 146.975 60.2313 145.661 54.6333C145.661 54.6333 147.548 52.9305 140.52 54.1509C133.493 55.3713 112.17 60.3249 100.031 71.1969Z" fill="#2E2E2E"/>
<path d="M5.15812 201.337C5.75457 201.658 6.421 201.827 7.09852 201.83C7.70912 201.829 8.31172 201.691 8.86187 201.426C9.41206 201.161 9.89575 200.776 10.2773 200.3L24.0654 183.398L35.193 169.433L26.085 164.325C25.1411 163.792 24.0244 163.656 22.98 163.946C21.9357 164.237 21.0493 164.929 20.5157 165.873L3.53452 195.692C3.26481 196.168 3.09277 196.693 3.02847 197.236C2.96421 197.779 3.00899 198.329 3.16019 198.855C3.31139 199.381 3.56598 199.871 3.90906 200.297C4.25211 200.723 4.67676 201.077 5.15812 201.337Z" fill="#2E2E2E"/>
<path d="M215.039 281.08L226.516 292.37C227.508 293.35 228.847 293.899 230.242 293.9H258.959C260.14 293.907 261.277 293.459 262.135 292.648C262.994 291.838 263.507 290.728 263.567 289.549C263.628 288.37 263.232 287.214 262.462 286.319C261.691 285.425 260.605 284.863 259.431 284.748L243.497 283.1L215.039 281.08Z" fill="#2E2E2E"/>
<path d="M162.164 53.78V54.5576V54.7556C168.514 56.3479 174.493 59.1598 179.768 63.0356C180.621 63.662 181.456 64.2956 182.288 64.9652C182.31 62.2796 182.079 59.5832 181.208 57.0452C180.504 54.8643 179.182 52.9344 177.403 51.4904C175.837 50.2412 173.983 49.4384 172.118 48.7148C170.253 47.9912 168.424 47.3576 166.718 46.382C165.278 45.5922 164.02 44.5093 163.024 43.2032C162.676 42.7305 162.46 42.174 162.396 41.5904C162.333 41.0068 162.426 40.4168 162.664 39.8804C162.497 39.8692 162.331 39.8365 162.171 39.7832L162.164 53.78Z" fill="#989898"/>
<path d="M162.164 53.78V54.5576V54.7556C168.514 56.3479 174.493 59.1598 179.768 63.0356C180.621 63.662 181.456 64.2956 182.288 64.9652C182.31 62.2796 182.079 59.5832 181.208 57.0452C180.504 54.8643 179.182 52.9344 177.403 51.4904C175.837 50.2412 173.983 49.4384 172.118 48.7148C170.253 47.9912 168.424 47.3576 166.718 46.382C165.278 45.5922 164.02 44.5093 163.024 43.2032C162.676 42.7305 162.46 42.174 162.396 41.5904C162.333 41.0068 162.426 40.4168 162.664 39.8804C162.497 39.8692 162.331 39.8365 162.171 39.7832L162.164 53.78Z" fill="#989898"/>
<path d="M74.451 114.44C76.8349 116.15 79.4871 117.451 82.299 118.288C83.505 118.648 80.6538 119.995 81.8922 120.236C76.9926 108.673 80.4882 90.896 95.9898 74.6745C98.6286 71.9097 104.698 68.4068 107.69 65.9732C112.503 62.06 117.77 61.5525 122.81 59.2053C125.062 58.1652 127.375 57.2612 129.736 56.498C133.933 55.1034 138.265 54.1527 142.66 53.6613C143.657 53.5389 144.644 53.4524 145.641 53.3985C145.398 51.6845 145.446 49.9414 145.785 48.2433C146.703 43.5849 148.305 40.9101 151.221 37.2381C153.05 34.9269 155.901 29.4009 152.096 27.4965C149.698 26.3013 149.479 23.8569 150.605 22.3665C151.559 21.0921 153.485 20.5125 155.869 22.0065C157.514 23.0577 159.469 23.1261 161.348 22.6113C162.813 21.7581 164.083 20.6079 165.077 19.2345C167.839 15.2745 167.936 9.28046 163.619 6.37526C161.261 4.78766 158.259 4.40246 155.44 4.70846C154.181 4.85426 152.94 5.1329 151.739 5.54006C151.734 5.5379 151.729 5.53682 151.723 5.53682C151.718 5.53682 151.712 5.5379 151.707 5.54006C146.609 8.29046 142.959 13.3773 141.206 19.1085C140.176 22.4961 139.013 25.8513 137.653 29.1381C136.537 31.8345 135.759 35.1141 133.268 36.9537C132.229 37.7251 131.049 38.2842 129.794 38.5989C125.092 41.5797 118.569 39.8589 113.428 39.2253C109.317 38.6633 105.132 39.0867 101.217 40.4601C96.8322 42.6741 93.063 46.22 90.003 50.8172C84.963 58.4348 90.2982 69.4184 81.849 75.4268C79.3038 77.2269 76.3554 78.332 73.569 79.7468C69.5802 81.7773 66.369 84.6572 65.1846 89.1068C62.8194 98.0204 67.0062 109.036 74.451 114.44Z" fill="#989898"/>
<path d="M178.681 179.643L243.679 282.995L215.959 281.685L205.62 272.253H193.801C193.801 272.253 161.588 225.014 154.201 217.007C146.814 209.001 154.201 188.708 154.201 188.708L178.681 179.643Z" fill="white"/>
<path d="M281.084 293.896H81.1367" stroke="black" stroke-width="2" stroke-miterlimit="10"/>
<path d="M169.496 15.6201C170.01 16.6842 170.449 17.7822 170.81 18.9069C171.336 20.7393 170.767 21.8697 171.566 23.6121C171.84 24.2133 172.236 25.2321 172.646 26.2653C172.765 26.0241 172.877 25.8261 172.941 25.6713C176.077 18.6909 171.955 15.3249 169.971 14.1729C169.849 14.6664 169.69 15.1503 169.496 15.6201Z" fill="#989898"/>
<path d="M169.496 15.6201C170.01 16.6842 170.449 17.7822 170.81 18.9069C171.336 20.7393 170.767 21.8697 171.566 23.6121C171.84 24.2133 172.236 25.2321 172.646 26.2653C172.765 26.0241 172.877 25.8261 172.941 25.6713C176.077 18.6909 171.955 15.3249 169.971 14.1729C169.849 14.6664 169.69 15.1503 169.496 15.6201Z" fill="#989898"/>
<path d="M139.853 202.618C136.502 214.401 131.095 226.35 126.613 233.902C123.372 239.352 118.19 243.374 112.107 245.161C106.024 246.948 99.4895 246.367 93.8166 243.536L44.6226 219.124V208.076L24.0666 183.412L10.2787 200.3C9.89575 200.774 9.41141 201.156 8.86133 201.418C8.31121 201.681 7.70936 201.817 7.09992 201.816C6.38478 201.812 5.68303 201.621 5.06401 201.263C4.44499 200.905 3.93012 200.391 3.57023 199.773C3.21033 199.156 3.01788 198.454 3.01186 197.739C3.00585 197.024 3.18646 196.319 3.53592 195.696L20.5171 165.891C21.0509 164.948 21.9372 164.255 22.9812 163.965C24.0256 163.674 25.1423 163.811 26.0862 164.343L35.1942 169.452L87.3942 198.687C88.2625 199.173 89.2335 199.446 90.2278 199.483C91.2217 199.52 92.2107 199.321 93.1128 198.901C94.0146 198.481 94.8041 197.853 95.4157 197.069C96.0277 196.285 96.4446 195.366 96.6318 194.389L102.817 161.989" stroke="black" stroke-width="2" stroke-miterlimit="10"/>
<path d="M117.215 183.873L130.589 194.752C144.664 205.857 156.915 219.098 166.895 233.992L193.614 272.357H236.742" stroke="black" stroke-width="2" stroke-miterlimit="10"/>
<path d="M206.194 272.365L215.039 281.08L226.516 292.37C227.508 293.35 228.847 293.899 230.242 293.9H258.959C260.139 293.907 261.277 293.459 262.135 292.649C262.993 291.838 263.506 290.728 263.567 289.549C263.628 288.371 263.232 287.214 262.461 286.32C261.691 285.426 260.605 284.863 259.43 284.749L243.497 283.1L166.579 160.79C162.619 154.475 159.091 144.082 162.162 137.275C173.858 111.38 172.847 86.2949 172.847 86.2949" stroke="black" stroke-width="2" stroke-miterlimit="10"/>
<path d="M162.163 37.5801V53.6721V54.4497V54.6477C163.815 57.0597 164.651 60.4797 163.07 63.0429C160.957 66.4737 156.288 65.9049 153.325 63.9861C152.455 63.4212 151.624 62.7981 150.837 62.1213C148.205 59.8328 146.501 56.6594 146.049 53.2005C145.806 51.4876 145.854 49.7459 146.19 48.0489C147.115 43.3941 148.71 40.7193 151.637 37.0401C153.465 34.7325 156.317 29.2029 152.504 27.2985C148.044 25.0737 151.133 18.5613 156.277 21.8157C160.266 24.3357 165.997 21.1929 168.366 17.8053C171.127 13.8453 171.228 7.85126 166.908 4.94606C164.55 3.35846 161.547 2.97326 158.732 3.27926C150.146 4.22246 144.041 10.9329 141.596 18.9105C140.567 22.2981 139.404 25.6533 138.047 28.9401C136.927 31.6401 136.149 34.9161 133.662 36.7557C128.928 40.2981 122.066 38.4441 116.706 37.7889C105.546 36.4173 96.5458 41.3601 90.397 50.6121C85.357 58.2297 90.6922 69.2133 82.2394 75.2217C79.6978 77.0217 76.7494 78.1269 73.9594 79.5417C69.967 81.5685 66.7594 84.4521 65.5714 88.9017C63.2062 97.8441 67.393 108.864 74.8342 114.267C78.2434 116.744 82.2322 118.227 86.3758 119.034" stroke="black" stroke-width="2" stroke-miterlimit="10"/>
<path d="M184.194 67.0353C184.216 66.8301 184.226 66.6321 184.234 66.4377C184.421 62.9061 184.399 59.2377 183.247 55.8573C182.542 53.6782 181.22 51.7501 179.442 50.3061C177.869 49.0569 176.019 48.2469 174.161 47.5269C172.303 46.8069 170.464 46.1733 168.761 45.1941C167.318 44.4097 166.06 43.3261 165.071 42.0153C164.721 41.5451 164.502 40.9907 164.436 40.4086C164.369 39.8261 164.458 39.2368 164.693 38.6997" stroke="black" stroke-width="2" stroke-miterlimit="10"/>
<path d="M44.625 208.08V174.729" stroke="black" stroke-width="2" stroke-miterlimit="10"/>
<path d="M158.703 33.9797C159.996 35.8265 161.749 37.8209 163.959 38.5445C166.821 39.4733 168.747 37.0469 169.773 34.6817C170.389 33.2741 170.81 31.7765 171.307 30.3221C171.469 29.8433 171.566 29.6021 172.117 29.5733C172.668 29.5445 173.24 29.6597 173.802 29.6597C173.844 29.6618 173.887 29.6518 173.924 29.6305C173.961 29.6093 173.991 29.5776 174.01 29.5398C174.03 29.502 174.039 29.4592 174.035 29.4167C174.031 29.3742 174.015 29.3335 173.989 29.2997C173.233 28.1513 172.106 25.0121 171.534 23.7557C170.742 22.0133 171.314 20.8757 170.781 19.0541C170.417 17.9302 169.981 16.8311 169.474 15.7637" stroke="black" stroke-width="2" stroke-miterlimit="10"/>
<path d="M170.316 12.4014C170.316 12.4014 178.117 15.3894 174.089 24.3822C173.841 24.9294 173.229 26.0634 172.941 26.5782" stroke="black" stroke-width="2" stroke-miterlimit="10"/>
<path d="M169.886 34.4083C169.262 34.4929 168.629 34.3474 168.104 33.9989C167.579 33.6504 167.199 33.1227 167.035 32.5146" stroke="black" stroke-width="2" stroke-miterlimit="10"/>
<path d="M171.206 22.3631C169.589 21.0491 167.818 22.7231 166.738 23.9507" stroke="black" stroke-width="2" stroke-miterlimit="10"/>
<path d="M162.164 54.6475C168.517 56.2401 174.499 59.0524 179.779 62.9275C181.312 64.0363 182.792 65.2171 184.228 66.4447C189.895 71.2543 194.881 76.8199 199.726 82.4467" stroke="black" stroke-width="2" stroke-miterlimit="10"/>
<path d="M206.995 135.529C206.966 135.511 206.94 135.489 206.916 135.464C200.559 129.106 194.154 122.795 187.779 116.459C182.436 111.153 175.488 105.721 172.227 98.7583" stroke="black" stroke-width="2" stroke-miterlimit="10"/>
<path d="M132.449 181.303C132.968 181.137 133.461 180.972 133.929 180.799C133.937 180.802 133.946 180.802 133.954 180.799" stroke="black" stroke-width="2" stroke-miterlimit="10"/>
<path d="M84.0545 106.545L122.016 95.493L191.73 75.1926C195.08 74.2281 198.674 74.6292 201.729 76.3075C204.783 77.9858 207.049 80.805 208.031 84.1494L223.004 135.583C223.968 138.931 223.569 142.526 221.893 145.581C220.217 148.637 217.4 150.905 214.058 151.891L139.761 173.519L132.669 175.579L125.469 177.685L118.377 179.755L112.617 181.421L92.1689 187.376C88.8194 188.342 85.2237 187.942 82.1688 186.263C79.1138 184.585 76.8483 181.764 75.8681 178.419L60.8957 126.986C59.9298 123.639 60.3283 120.046 62.0041 116.992C63.6799 113.938 66.4962 111.672 69.8381 110.689L70.3745 110.534L70.8245 110.401L80.3717 107.618L84.0545 106.545Z" fill="white"/>
<path d="M89.7602 107.888L124.932 97.6496L189.531 78.8396C192.636 77.9403 195.971 78.3086 198.805 79.8641C201.64 81.4193 203.741 84.0351 204.651 87.1376L218.518 134.78C219.411 137.883 219.042 141.213 217.491 144.045C215.94 146.877 213.333 148.981 210.238 149.9L141.388 169.945L134.818 171.86L128.133 173.808L121.563 175.73L116.22 177.26L94.3574 183.74C91.252 184.64 87.9163 184.272 85.0816 182.717C82.2474 181.161 80.1457 178.545 79.2374 175.442L65.3774 127.774C64.4781 124.672 64.8446 121.339 66.3962 118.505C67.9478 115.672 70.5585 113.568 73.6574 112.654L74.1542 112.51L74.5718 112.392L86.3474 108.864L89.7602 107.888Z" fill="#989898"/>
<path d="M93.5699 109.58L126.182 100.087L188.462 81.8532C191.339 81.0252 194.427 81.3693 197.052 82.8108C199.676 84.2522 201.622 86.6739 202.466 89.5464L215.333 133.736C216.161 136.613 215.818 139.702 214.378 142.327C212.938 144.952 210.518 146.9 207.647 147.748L141.428 167.134L135.337 168.905L129.141 170.705L123.047 172.483L118.111 173.923L95.8595 180.475C92.9802 181.311 89.8874 180.97 87.2591 179.528C84.6311 178.085 82.6824 175.659 81.8411 172.782L68.9711 128.596C68.1413 125.72 68.4844 122.632 69.9244 120.008C71.3647 117.384 73.7854 115.436 76.6571 114.592L79.0979 113.897L79.4867 113.782L90.4055 110.513L93.5699 109.58Z" fill="#989898"/>
<path d="M142.043 135.878L83.4316 152.42C83.1191 152.508 82.7922 152.534 82.4696 152.496C82.1471 152.458 81.8353 152.356 81.5524 152.198C81.269 152.039 81.0199 151.826 80.819 151.57C80.6185 151.315 80.4698 151.023 80.3824 150.71C80.3179 150.494 80.2852 150.27 80.2852 150.044C80.2873 149.506 80.4641 148.984 80.7888 148.554C81.1132 148.126 81.5682 147.813 82.0852 147.664L140.697 131.133C140.461 131.94 140.449 132.797 140.664 133.61C140.897 134.483 141.376 135.27 142.043 135.878Z" fill="#989898"/>
<path d="M155.733 130.132C155.732 130.672 155.556 131.197 155.232 131.628C154.907 132.059 154.451 132.373 153.933 132.523L149.703 133.718C149.944 132.879 149.946 131.989 149.71 131.149C149.474 130.309 149.009 129.55 148.367 128.959L152.597 127.767C153.228 127.592 153.902 127.673 154.473 127.994C155.043 128.314 155.464 128.848 155.643 129.477C155.706 129.69 155.736 129.911 155.733 130.132Z" fill="#E4E4E4"/>
<path d="M158.397 139.572C158.395 140.11 158.219 140.633 157.894 141.062C157.57 141.491 157.114 141.803 156.597 141.951L98.3488 158.382C98.698 157.574 98.8114 156.685 98.6757 155.816C98.54 154.947 98.1609 154.134 97.582 153.471L155.25 137.192C155.881 137.018 156.555 137.1 157.125 137.42C157.696 137.74 158.117 138.273 158.296 138.902C158.363 139.119 158.397 139.345 158.397 139.572Z" fill="#E4E4E4"/>
<path d="M91.3418 160.34L86.093 161.819C85.773 161.945 85.4302 162.003 85.0864 161.989C84.743 161.975 84.406 161.889 84.0975 161.737C83.789 161.584 83.5158 161.369 83.2954 161.105C83.0751 160.841 82.9124 160.534 82.8177 160.203C82.723 159.873 82.6989 159.526 82.7461 159.185C82.7936 158.844 82.9117 158.517 83.0931 158.225C83.2746 157.933 83.515 157.682 83.7991 157.488C84.0831 157.294 84.4046 157.162 84.743 157.1L89.423 155.782C89.3222 156.428 89.3528 157.088 89.513 157.723C89.7934 158.784 90.4414 159.711 91.3418 160.34Z" fill="#989898"/>
<path d="M143.521 155.937L89.1398 171.284C88.5094 171.455 87.837 171.372 87.2671 171.052C86.6976 170.732 86.2764 170.201 86.0942 169.574C86.0308 169.36 86.0006 169.138 86.0042 168.915C86.0056 168.376 86.1817 167.851 86.506 167.42C86.8307 166.989 87.2862 166.675 87.8042 166.525L142.107 151.214C141.879 152.055 141.892 152.943 142.142 153.777C142.392 154.612 142.869 155.36 143.521 155.937Z" fill="#989898"/>
<path d="M161.454 149.007C161.455 149.546 161.279 150.07 160.954 150.499C160.629 150.929 160.173 151.24 159.654 151.387L151.126 153.788L143.53 155.948C142.878 155.37 142.4 154.622 142.15 153.787C141.9 152.953 141.888 152.066 142.115 151.225L149.855 149.043L158.315 146.653C158.945 146.475 159.619 146.554 160.191 146.873C160.762 147.191 161.184 147.723 161.364 148.352C161.424 148.565 161.455 148.786 161.454 149.007Z" fill="#E4E4E4"/>
<path d="M149.703 133.718C149.42 134.706 148.82 135.574 147.996 136.187C147.171 136.8 146.168 137.125 145.14 137.111C144.112 137.097 143.118 136.745 142.31 136.11C141.502 135.475 140.926 134.591 140.67 133.596C140.516 133 140.48 132.381 140.564 131.771C140.649 131.162 140.853 130.576 141.165 130.046C141.476 129.515 141.889 129.052 142.38 128.681C142.871 128.31 143.43 128.04 144.026 127.886C144.782 127.689 145.576 127.685 146.334 127.874C147.092 128.062 147.791 128.438 148.367 128.966C149.009 129.557 149.474 130.316 149.71 131.156C149.946 131.997 149.944 132.886 149.703 133.725V133.718Z" fill="white"/>
<g opacity="0.72">
<path opacity="0.72" d="M147.189 131.472C147.246 132.039 147.142 132.611 146.886 133.12C146.764 133.372 146.619 133.614 146.454 133.84C146.364 133.959 145.893 134.64 145.756 134.611C144.827 134.445 143.499 133.722 143.07 132.753C143.006 132.601 142.962 132.441 142.937 132.278C142.904 132.041 142.944 131.799 143.05 131.585C143.157 131.371 143.326 131.194 143.534 131.077C143.744 130.96 143.983 130.909 144.221 130.931C144.46 130.952 144.686 131.045 144.87 131.198C144.97 130.954 145.146 130.749 145.373 130.615C145.599 130.48 145.863 130.423 146.125 130.451C146.386 130.479 146.632 130.592 146.824 130.772C147.016 130.953 147.144 131.19 147.189 131.45V131.472Z" fill="#989898"/>
</g>
<path d="M98.3494 158.382C97.9653 159.28 97.3098 160.036 96.4749 160.542C95.6397 161.049 94.667 161.282 93.6928 161.208C92.7187 161.135 91.792 160.758 91.0429 160.131C90.2937 159.504 89.7595 158.658 89.515 157.712C89.3552 157.078 89.3246 156.418 89.425 155.772C89.5766 154.881 89.9816 154.052 90.5921 153.385C91.2023 152.719 91.9922 152.242 92.8666 152.013C93.7112 151.789 94.6022 151.809 95.4363 152.068C96.2708 152.328 97.0146 152.818 97.5826 153.482C98.1615 154.145 98.5406 154.957 98.6763 155.826C98.812 156.696 98.6986 157.585 98.3494 158.393V158.382Z" fill="white"/>
<g opacity="0.72">
<path opacity="0.72" d="M96.0364 155.585C96.0933 156.152 95.9871 156.724 95.7304 157.233C95.6113 157.488 95.4666 157.729 95.2984 157.953C95.2084 158.072 94.7368 158.753 94.6036 158.724C93.6712 158.558 92.3464 157.835 91.918 156.863C91.8521 156.711 91.8071 156.551 91.7848 156.387C91.7517 156.151 91.7913 155.909 91.8979 155.694C92.0044 155.48 92.1733 155.303 92.3821 155.187C92.5912 155.07 92.8306 155.019 93.0689 155.04C93.3073 155.062 93.5337 155.155 93.718 155.308C93.7893 155.133 93.8995 154.977 94.0406 154.852C94.1817 154.728 94.3498 154.637 94.5316 154.588C94.6965 154.549 94.8671 154.544 95.0338 154.574C95.2001 154.604 95.3589 154.667 95.4997 154.761C95.6408 154.854 95.761 154.976 95.8536 155.117C95.9457 155.259 96.008 155.418 96.0364 155.585Z" fill="#989898"/>
</g>
<path d="M151.118 153.788C150.791 154.865 150.084 155.788 149.129 156.385C148.174 156.982 147.035 157.213 145.923 157.035C144.811 156.858 143.8 156.284 143.079 155.419C142.357 154.554 141.973 153.458 141.997 152.332C142.021 151.206 142.452 150.126 143.21 149.293C143.968 148.461 145.002 147.93 146.121 147.801C147.24 147.671 148.368 147.951 149.296 148.588C150.225 149.225 150.891 150.177 151.172 151.268C151.385 152.097 151.367 152.968 151.118 153.788Z" fill="white"/>
<g opacity="0.72">
<path opacity="0.72" d="M148.626 151.498C148.68 152.066 148.574 152.637 148.32 153.147C148.199 153.4 148.054 153.641 147.888 153.867C147.798 153.986 147.326 154.666 147.193 154.638C146.261 154.472 144.932 153.748 144.504 152.78C144.44 152.627 144.395 152.466 144.371 152.301C144.338 152.064 144.377 151.823 144.483 151.608C144.59 151.394 144.759 151.217 144.968 151.1C145.177 150.983 145.416 150.932 145.655 150.954C145.893 150.976 146.119 151.069 146.304 151.221C146.405 150.978 146.582 150.774 146.808 150.64C147.035 150.507 147.299 150.45 147.561 150.478C147.822 150.507 148.068 150.62 148.26 150.8C148.452 150.98 148.58 151.218 148.626 151.477V151.498Z" fill="#989898"/>
</g>
<path d="M141.461 166.384C138.34 166.557 134.981 162.064 133.955 160.944C133.841 160.825 133.712 160.722 133.57 160.638L130.78 158.381L131.248 161.931C131.993 163.641 135.928 167.37 138.732 171.651C141.536 175.931 138.865 176.867 137.364 177.411C135.863 177.954 134.293 175.118 134.905 178.199C135.517 181.281 131.881 181.324 129.613 180.939C127.345 180.554 126.532 178.059 127.047 180.017C127.561 181.976 125.862 183.405 124.329 183.47C123.166 183.527 120.93 181.958 119.922 181.202C119.692 182.44 118.86 184.766 115.962 183.527C112.114 181.882 108.377 172.05 105.522 161.988C102.667 151.926 84.1777 133.574 81.4813 114.141C81.4813 114.108 81.4813 114.062 81.4813 114.029C81.3373 112.56 81.2639 111.081 81.2617 109.59C81.2624 106.758 81.5371 103.932 82.0825 101.152C82.472 99.1296 82.993 97.1345 83.6413 95.1797L114.169 101.242C113.961 101.472 113.752 101.703 113.543 101.944C106.397 110.242 110.573 120.765 116.009 128.49C121.524 136.353 127.871 144.122 135.125 150.45C137.255 152.304 139.245 154.313 141.079 156.459L140.683 156.678C141.114 157.518 141.595 158.331 142.123 159.112C144.28 162.086 144.596 166.208 141.461 166.384Z" fill="white"/>
<path d="M122.016 95.493L191.73 75.1926C195.079 74.2281 198.673 74.6292 201.728 76.3075C204.782 77.9858 207.048 80.805 208.03 84.1494L223.003 135.583C223.968 138.931 223.568 142.526 221.892 145.581C220.216 148.637 217.399 150.905 214.057 151.891L139.76 173.519" stroke="black" stroke-width="2" stroke-miterlimit="10"/>
<path d="M112.599 181.422L92.1689 187.376C88.8194 188.342 85.2237 187.942 82.1688 186.264C79.1138 184.585 76.8483 181.764 75.8681 178.419L60.8957 126.986C59.9298 123.639 60.3283 120.046 62.0041 116.993C63.6799 113.939 66.4962 111.672 69.8381 110.689L70.3745 110.534L70.8245 110.401L80.3717 107.618" stroke="black" stroke-width="2" stroke-miterlimit="10"/>
<path d="M132.667 175.579H132.656" stroke="black" stroke-width="2" stroke-miterlimit="10"/>
<path d="M118.355 179.755H118.344" stroke="black" stroke-width="2" stroke-miterlimit="10"/>
<path d="M122.237 160.037C123.242 165.517 127.806 171.453 132.648 175.564C134.056 176.759 137.166 178.214 138.855 176.849C142.498 173.912 136.27 169.073 134.553 167.129C132.468 164.768 130.784 161.999 130.157 158.878C130.103 158.686 130.114 158.48 130.19 158.295C130.263 158.194 130.366 158.12 130.485 158.083C130.604 158.046 130.731 158.048 130.848 158.09C131.081 158.175 131.29 158.313 131.46 158.493C133.433 160.293 135.194 162.284 136.979 164.253C138.243 165.661 141.53 167.407 143.142 165.614C146.642 161.722 136.738 152.654 134.204 150.429C126.957 144.093 120.599 136.324 115.084 128.469C109.648 120.743 105.472 110.221 112.618 101.923C116.348 97.6025 121.87 95.7161 126.802 93.1637C134.758 89.0597 136.396 82.2197 136.396 82.2197" stroke="black" stroke-width="2" stroke-miterlimit="10"/>
<path d="M117.617 165.607C117.617 165.607 121.736 177.347 130.484 181.001C131.003 181.232 131.568 181.343 132.136 181.326C132.704 181.309 133.262 181.165 133.767 180.903C134.847 180.299 135.729 179.103 134.213 176.706" stroke="black" stroke-width="2" stroke-miterlimit="10"/>
<path d="M111.914 168.35C113.52 172.706 115.651 177.26 119.078 180.5C120.64 181.972 122.62 183.431 124.838 183.524C127.509 183.636 127.718 180.943 126.638 179.111C126.405 178.718 126.124 178.355 125.803 178.031" stroke="black" stroke-width="2" stroke-miterlimit="10"/>
<path d="M119.077 180.5C119.077 180.5 118.883 185.18 115.035 183.528C111.186 181.875 107.439 172.047 104.595 161.982C101.751 151.916 83.1565 133.509 80.5177 114.03L80.5465 114.267C80.5465 114.224 80.5465 114.192 80.5465 114.148C80.0969 109.81 80.296 105.428 81.1369 101.149C89.4709 58.9711 145.66 53.3911 145.66 53.3911" stroke="black" stroke-width="2" stroke-miterlimit="10"/>
<path d="M228.909 142.466C227.354 147.056 223.509 149.983 218.771 150.696C216.741 150.994 214.552 151.268 212.651 150.336C211.258 149.655 209.887 148.068 210.304 146.401C209.685 146.409 209.066 146.339 208.465 146.192C207.64 145.994 206.787 145.602 206.423 144.842C206.06 144.082 206.315 143.024 206.906 142.344C207.549 141.709 208.341 141.246 209.21 140.997C209.421 140.919 209.636 140.853 209.854 140.799C209.151 140.805 208.449 140.761 207.752 140.666C206.413 140.493 204.911 139.921 204.512 138.639C204.401 138.204 204.402 137.747 204.515 137.312C204.629 136.877 204.85 136.478 205.16 136.152C205.79 135.504 206.58 135.035 207.449 134.791C207.539 134.769 207.615 134.737 207.701 134.715C206.114 134.694 204.49 134.377 203.788 132.872C203.563 132.337 203.499 131.748 203.604 131.178C203.71 130.607 203.98 130.08 204.382 129.661C205.786 128.084 207.889 127.861 209.872 127.71C211.856 127.558 214.268 127.49 216.604 127.447C217.112 127.434 217.609 127.304 218.059 127.069C218.509 126.833 218.899 126.498 219.2 126.089C219.5 125.68 219.703 125.207 219.793 124.708C219.883 124.208 219.857 123.695 219.718 123.206C218.807 119.966 218.422 116.431 220.341 115.567C223.203 114.271 225.176 117.802 225.997 119.973C228.506 126.626 231.299 135.439 228.909 142.466Z" fill="white"/>
<path d="M216.84 139.791C214.525 140.284 212.182 140.788 209.834 140.81C209.616 140.864 209.401 140.93 209.19 141.008C208.322 141.257 207.529 141.72 206.886 142.354C206.296 143.035 206.011 144.043 206.404 144.853C206.796 145.663 207.62 146.005 208.445 146.203C209.047 146.349 209.665 146.419 210.284 146.411C211.552 146.386 212.812 146.227 214.046 145.94C214.255 145.897 216.811 145.601 217.009 145.555" stroke="black" stroke-width="2" stroke-miterlimit="10"/>
<path d="M207.678 134.726C207.592 134.748 207.516 134.78 207.426 134.802C206.557 135.045 205.766 135.515 205.137 136.162C204.827 136.489 204.605 136.887 204.492 137.323C204.379 137.758 204.377 138.214 204.489 138.65C204.906 139.932 206.407 140.504 207.729 140.677C208.425 140.771 209.128 140.816 209.831 140.81" stroke="black" stroke-width="2" stroke-miterlimit="10"/>
<path d="M218.784 134.485C218.608 134.485 218.442 134.485 218.269 134.485L209.903 134.672C209.248 134.672 208.463 134.737 207.678 134.715C206.09 134.694 204.467 134.377 203.765 132.872C203.539 132.337 203.475 131.748 203.581 131.178C203.686 130.607 203.957 130.08 204.359 129.661C205.763 128.084 207.865 127.861 209.849 127.71C211.832 127.558 214.248 127.497 216.584 127.447C217.093 127.435 217.593 127.307 218.045 127.072C218.497 126.837 218.889 126.501 219.191 126.091C219.493 125.681 219.696 125.207 219.786 124.705C219.876 124.204 219.85 123.688 219.709 123.199C218.798 119.959 218.406 116.42 220.328 115.556C223.19 114.26 225.163 117.792 225.984 119.962C228.504 126.615 231.301 135.442 228.911 142.455C227.352 147.045 223.511 149.979 218.777 150.685C216.75 150.987 214.554 151.261 212.657 150.325C211.271 149.648 209.896 148.064 210.31 146.397" stroke="black" stroke-width="2" stroke-miterlimit="10"/>
<g opacity="0.54">
<path opacity="0.54" d="M152.481 115.624C152.418 115.208 152.323 114.798 152.197 114.397L150.782 109.821C150.35 108.421 149.871 106.941 148.77 105.976C146.728 104.176 143.582 104.849 140.972 105.634L134.568 107.557C133.095 107.999 131.601 108.453 130.316 109.292C129.031 110.131 127.958 111.434 127.756 112.957C127.605 114.08 127.936 115.203 128.264 116.29L129.582 120.682C130.017 122.122 130.5 123.641 131.634 124.642C133.653 126.399 136.738 125.74 139.309 124.981L145.861 123.047C149.814 121.867 153.118 119.753 152.481 115.624Z" fill="white"/>
<path opacity="0.54" d="M143.497 116.16C143.761 115.883 143.947 115.539 144.034 115.165C144.122 114.792 144.108 114.401 143.995 114.035C143.881 113.668 143.673 113.338 143.39 113.079C143.106 112.82 142.76 112.641 142.384 112.56L140.354 112.1L138.327 111.639C137.954 111.549 137.564 111.56 137.197 111.671C136.829 111.781 136.498 111.988 136.237 112.269C135.976 112.55 135.795 112.896 135.712 113.27C135.628 113.645 135.646 114.035 135.764 114.4L136.379 116.387L136.991 118.374C137.1 118.743 137.304 119.076 137.584 119.339C137.864 119.602 138.209 119.786 138.583 119.872C138.958 119.957 139.348 119.941 139.715 119.826C140.081 119.71 140.41 119.498 140.667 119.213L142.082 117.687L143.497 116.16Z" fill="#989898"/>
</g>
<path d="M288.498 268.077H270.848" stroke="#D7D7D7" stroke-width="2" stroke-miterlimit="10"/>
</svg>
