<svg width="384" height="253" viewBox="0 0 384 253" fill="none" xmlns="http://www.w3.org/2000/svg">
<path d="M254.533 251.123C259.088 251.123 263.518 250.934 267.822 250.556C296.88 248.066 319.854 237.419 335.132 222.554C343.215 214.807 349.327 205.476 353.019 195.245C356.497 185.56 357.511 175.257 355.982 165.146C345.424 95.4502 256.751 129.342 293.925 86.9517C331.098 44.5613 258.326 -9.3532 230.403 3.4064C202.479 16.166 233.273 43.4557 164.269 30.5545C95.2646 17.6532 109.544 74.3377 109.544 74.3377" stroke="#D7D7D7" stroke-width="2" stroke-miterlimit="10"/>
<path d="M68.7482 190.972C68.7482 190.972 37.1459 169.911 24.9453 193.203C24.9453 193.203 37.7767 150.939 81.5415 135.822C81.5415 135.822 94.0511 129.354 94.6014 133.261C95.1518 137.168 98.7798 139.163 100.367 139.116C101.955 139.068 115.358 139.847 115.823 137.986C116.289 136.125 115.4 130.55 122.046 130.511C128.693 130.472 164.757 138.706 175.07 147.41C175.07 147.41 157.12 167.55 166.717 189.757L158.631 187.935C158.631 187.935 163.618 228.067 156.82 251.41H39.3854C39.3854 251.41 51.1246 252.784 63.1643 244.8L80.6482 223.948C80.6482 223.948 88.3149 213.151 103.978 211.609C103.978 211.609 112.894 210.704 112.809 206.766C112.725 202.827 116.022 209.288 120.429 203.594C120.967 203.594 131.677 204.169 131.677 204.169C131.677 204.169 139.721 204.869 141.232 198.196C142.744 191.523 148.315 144.687 146.312 141.874C144.31 139.061 143.544 139.025 126.644 139.12C109.744 139.214 94.8935 136.082 92.743 143.896C90.5924 151.71 88.1074 181.317 88.1074 181.317C88.1074 181.317 78.5823 183.635 71.3263 193.223C71.3517 193.219 68.7482 197.893 68.7482 190.972Z" fill="#2E2E2E"/>
<path d="M68.7461 176.749V195.186" stroke="black" stroke-width="2" stroke-miterlimit="10"/>
<path d="M158.09 185.967C176.738 195.174 228.275 213.985 230.104 141.633C230.104 141.633 227.886 122.634 233.668 120.155C239.451 117.676 248.777 109.827 236.767 90.8231L244.603 83.5561C245.662 82.5433 246.245 81.1812 246.223 79.7695C246.201 78.3574 245.577 77.0114 244.487 76.0274C243.397 75.0434 241.932 74.502 240.412 74.522C238.893 74.5425 237.445 75.1228 236.386 76.1356L220.812 91.4801C220.812 91.4801 218.555 87.5456 214.555 89.5955C210.554 91.6454 195.881 100.345 202.545 118.51L185.213 164.78" stroke="black" stroke-width="2" stroke-miterlimit="10"/>
<path d="M220.792 91.4727C220.792 91.4727 224.945 97.3469 216.105 103.351" stroke="black" stroke-width="2" stroke-miterlimit="10"/>
<path d="M239.328 95.3872C239.328 95.3872 241.914 102.938 231.479 107.808C227.787 109.532 223.736 105.904 225.48 102.422C225.51 102.371 225.535 102.316 225.565 102.261" stroke="black" stroke-width="2" stroke-miterlimit="10"/>
<path d="M242.483 104.712C242.483 104.712 240.201 112.085 233.957 112.439C228.432 112.75 229.359 107.513 229.359 107.513" stroke="black" stroke-width="2" stroke-miterlimit="10"/>
<path d="M135.658 100.093C135.235 100.195 134.968 99.8688 134.574 99.9318C128.914 98.9718 124.706 94.8169 124.232 92.8182C124.393 93.908 126.544 93.7979 126.18 94.9113C126.112 95.1238 125.976 95.0412 125.866 95.2458C125.688 95.6392 125.693 95.1002 125.443 95.4543C124.054 93.5461 123.25 92.5979 123.004 91.5474C123.171 92.675 123.073 93.8227 122.717 94.9113C122.651 95.1242 122.565 95.3312 122.458 95.5291C121.612 97.3862 119.846 98.956 116.896 99.3455C116.156 99.4325 115.409 99.4549 114.665 99.4124C112.548 99.2983 110.719 99.1842 109.161 99.1213C103.954 98.9049 102.087 99.2708 102.672 102.395C102.993 103.808 103.45 105.192 104.035 106.53C105.068 109.056 105.787 113.431 104.729 118.196V118.223C103.501 123.771 99.615 128.06 91.288 132.088C89.8126 132.796 88.2911 133.418 86.7328 133.95C72.2843 138.931 37.7229 151.549 23.3971 197.818C21.873 202.748 20.7342 207.234 19.9299 211.329L19.5362 211.117C9.75281 205.668 3.3731 193.443 5.31199 182.926C6.2772 177.705 9.93485 174.062 14.6254 171.319C17.919 169.423 21.4412 167.869 24.392 165.528C34.1711 157.765 26.352 145.694 31.7665 136.413C37.8711 125.97 47.4301 119.533 59.9101 119.002C63.0513 119.128 66.5861 119.471 70.0152 119.317C74.9937 119.482 80.0822 119.105 83.7271 116.071C86.5974 113.71 87.1943 109.862 88.2822 106.652C89.5074 103.031 90.5289 99.3542 91.343 95.6353C92.0876 92.1092 93.4766 88.7279 95.4494 85.6377C97.5792 82.2891 100.583 79.4932 104.183 77.509C107.323 75.8616 110.824 74.8973 114.423 74.688C117.701 74.8674 120.889 75.7511 123.737 77.269C124.709 77.8033 125.629 78.4167 126.484 79.1025C132.788 84.0993 135.806 92.5585 135.658 100.093Z" fill="#989898"/>
<path d="M231.3 111.999C231.3 111.999 229.28 114.328 230.385 116.539C231.49 118.751 234.233 119.266 236.9 118.298" stroke="black" stroke-width="2" stroke-miterlimit="10"/>
<path d="M236.759 90.8232L231.18 96.005" stroke="black" stroke-width="2" stroke-miterlimit="10"/>
<path d="M88.1289 180.81L92.6713 144.415C92.8551 142.943 93.615 141.584 94.8058 140.599C95.9971 139.613 97.5363 139.068 99.1315 139.068H140.847C141.76 139.068 142.663 139.246 143.497 139.591C144.33 139.936 145.076 140.441 145.686 141.072C146.297 141.703 146.757 142.446 147.038 143.253C147.318 144.06 147.413 144.913 147.316 145.757L141.237 198.2C141.064 199.683 140.309 201.054 139.115 202.05C137.921 203.047 136.373 203.598 134.768 203.598H119.841" stroke="black" stroke-width="2" stroke-miterlimit="10"/>
<path d="M137.436 148.338C138.376 148.338 139.138 147.63 139.138 146.756C139.138 145.883 138.376 145.175 137.436 145.175C136.496 145.175 135.734 145.883 135.734 146.756C135.734 147.63 136.496 148.338 137.436 148.338Z" fill="black"/>
<path d="M109.343 189.253C113.746 190.174 114.626 190.189 118.898 190.78C121.59 191.153 127.746 191.464 127.856 187.581C127.957 184.17 123.838 182.167 120.93 181.077C117.573 179.891 114.061 179.127 110.486 178.807C109.013 178.65 107.533 178.542 106.045 178.484C95.737 178.091 83.8455 180.408 76.7461 187.904C60.2994 205.247 38.4297 216.397 38.4297 216.397" stroke="black" stroke-width="2" stroke-miterlimit="10"/>
<path d="M121.135 190.972C123.252 191.806 126.837 193.585 125.368 196.992C124.7 198.566 123.485 199.124 121.817 199.353C118.214 199.837 114.349 199.124 110.81 198.436C109.502 198.18 107.182 197.712 105.891 197.381" stroke="black" stroke-width="2" stroke-miterlimit="10"/>
<path d="M117.368 199.432C117.368 199.432 121.216 199.388 120.289 202.713C118.761 208.221 106.886 205.727 101.332 204.57" stroke="black" stroke-width="2" stroke-miterlimit="10"/>
<path d="M117.609 130.81C135.703 131.545 163.275 136.475 188.277 156.577" stroke="black" stroke-width="2" stroke-miterlimit="10"/>
<path d="M254.532 251.127L39.3867 251.426" stroke="black" stroke-width="2" stroke-miterlimit="10"/>
<path d="M158.09 178.445C158.09 178.445 162.323 215.063 158.09 251.127" stroke="black" stroke-width="2" stroke-miterlimit="10"/>
<path opacity="0.54" d="M344.918 161.719L382.125 73.1101C382.587 71.3955 382.621 69.6061 382.227 67.8772C381.833 66.1484 381.02 64.5258 379.85 63.1326C378.68 61.7398 377.184 60.6126 375.475 59.8375C373.766 59.062 371.89 58.6591 369.988 58.6587H222.18C218.861 58.6583 215.639 59.6962 213.032 61.6056C210.426 63.5147 208.587 66.1842 207.811 69.1835L167.069 157.773C166.627 159.482 166.608 161.263 167.013 162.981C167.418 164.699 168.237 166.309 169.408 167.69C170.579 169.071 172.072 170.188 173.774 170.955C175.476 171.723 177.344 172.122 179.236 172.122H330.58C333.876 172.122 337.077 171.099 339.675 169.214C342.273 167.329 344.118 164.691 344.918 161.719Z" fill="white"/>
<path d="M344.918 161.719L382.125 73.1101C382.587 71.3955 382.621 69.6061 382.227 67.8772C381.833 66.1484 381.02 64.5258 379.85 63.1326C378.68 61.7398 377.184 60.6126 375.475 59.8375C373.766 59.062 371.89 58.6591 369.988 58.6587H222.18C218.861 58.6583 215.639 59.6962 213.032 61.6056C210.426 63.5147 208.587 66.1842 207.811 69.1835L167.069 157.773C166.627 159.482 166.608 161.263 167.013 162.981C167.418 164.699 168.237 166.309 169.408 167.69C170.579 169.071 172.072 170.188 173.774 170.955C175.476 171.723 177.344 172.122 179.236 172.122H330.58C333.876 172.122 337.077 171.099 339.675 169.214C342.273 167.329 344.118 164.691 344.918 161.719Z" fill="#989898"/>
<path d="M344.918 161.719L382.125 73.1101C382.587 71.3955 382.621 69.6061 382.227 67.8772C381.833 66.1484 381.02 64.5258 379.85 63.1326C378.68 61.7398 377.184 60.6126 375.475 59.8375C373.766 59.062 371.89 58.6591 369.988 58.6587H222.18C218.861 58.6583 215.639 59.6962 213.032 61.6056C210.426 63.5147 208.587 66.1842 207.811 69.1835L167.069 157.773C166.627 159.482 166.608 161.263 167.013 162.981C167.418 164.699 168.237 166.309 169.408 167.69C170.579 169.071 172.072 170.188 173.774 170.955C175.476 171.723 177.344 172.122 179.236 172.122H330.58C333.876 172.122 337.077 171.099 339.675 169.214C342.273 167.329 344.118 164.691 344.918 161.719Z" stroke="black" stroke-width="2" stroke-linecap="square" stroke-linejoin="round"/>
<path d="M339.475 158.131L373.804 76.3838C374.229 74.8025 374.26 73.152 373.897 71.5577C373.533 69.9631 372.783 68.4668 371.705 67.1818C370.626 65.8972 369.246 64.8577 367.67 64.142C366.095 63.4267 364.364 63.0545 362.611 63.0537H226.24C223.178 63.0529 220.206 64.0106 217.801 65.7721C215.396 67.5339 213.7 69.9965 212.986 72.7641L175.398 154.492C174.99 156.069 174.972 157.712 175.346 159.296C175.72 160.881 176.476 162.366 177.557 163.64C178.637 164.915 180.015 165.944 181.585 166.652C183.156 167.36 184.879 167.727 186.624 167.727H326.25C329.29 167.726 332.242 166.781 334.638 165.042C337.034 163.304 338.736 160.871 339.475 158.131Z" fill="#989898"/>
<path d="M236.08 78.0832C237.888 75.5612 240.847 74.4399 242.688 75.577C244.53 76.714 244.555 79.6846 242.748 82.2066C242.467 82.5942 242.15 82.9577 241.799 83.2925L255.198 109.583C257.315 108.257 259.685 107.93 261.37 108.973C262.458 109.646 263.064 110.791 263.254 112.121L272.407 109.248L280.412 106.762C281.259 106.49 282.152 106.231 283.024 105.975C283.353 105.061 283.81 104.192 284.383 103.39C286.923 99.8489 291.076 98.2751 293.658 99.8489C296.241 101.423 296.274 105.542 293.806 109.064L309.047 128.433C312.37 125.899 316.286 125.116 318.999 126.792C322.691 129.074 322.746 135.031 319.122 140.095C318.978 140.296 318.813 140.461 318.661 140.654L328.821 153.555C328.85 153.594 328.888 153.641 328.914 153.681C329.171 154.041 329.349 154.445 329.438 154.869C329.526 155.292 329.525 155.729 329.432 156.152C329.34 156.576 329.159 156.978 328.899 157.336C328.64 157.695 328.306 158.002 327.919 158.241C327.531 158.479 327.097 158.645 326.641 158.728C326.185 158.81 325.715 158.809 325.26 158.723C324.804 158.637 324.371 158.469 323.985 158.227C323.6 157.986 323.269 157.676 323.013 157.316L313.991 144.667C311.138 146.205 308.107 146.5 305.884 145.123C302.354 142.944 302.184 137.42 305.33 132.533L290.72 112.046C288.565 113.407 286.186 113.753 284.48 112.703C283.527 112.078 282.878 111.13 282.673 110.063C282.309 110.153 281.949 110.252 281.585 110.346L273.444 112.412L263.025 115.02C262.706 116.181 262.18 117.284 261.468 118.282C258.928 121.823 254.779 123.397 252.192 121.803C249.606 120.21 249.568 116.035 252.103 112.49C252.481 111.976 252.906 111.493 253.373 111.047L240.618 84.2407C239.081 85.2126 237.384 85.4644 236.169 84.7129C234.302 83.5798 234.272 80.6092 236.08 78.0832Z" fill="white"/>
<path d="M333.105 79.5351H352.871C353.775 79.5351 354.66 79.29 355.417 78.8304C356.174 78.3705 356.77 77.7158 357.134 76.9462C357.25 76.7101 357.312 76.4544 357.316 76.1947C357.312 75.6931 357.094 75.2134 356.711 74.8597C356.329 74.506 355.811 74.3073 355.271 74.3062H334.244C335.248 75.8603 334.748 78.0085 333.105 79.5351Z" fill="#E4E4E4"/>
<path d="M320.324 77.6505C320.325 78.151 320.54 78.6302 320.921 78.9835C321.302 79.3368 321.818 79.5351 322.356 79.5351H333.105C334.747 78.0085 335.247 75.8603 334.261 74.3062H324.769C323.866 74.3058 322.982 74.5497 322.225 75.0077C321.468 75.466 320.871 76.1192 320.506 76.8872C320.391 77.128 320.329 77.3873 320.324 77.6505Z" fill="#989898"/>
<path d="M325.273 79.5351C325.329 79.6362 325.394 79.7322 325.468 79.8223C326.878 81.6125 329.934 81.7896 332.313 80.1686C332.595 79.9758 332.861 79.7641 333.109 79.5351C334.752 78.0085 335.251 75.8603 334.265 74.3062C334.209 74.2066 334.144 74.1118 334.07 74.0229C332.673 72.2209 329.617 72.0556 327.237 73.6648C326.952 73.8608 326.682 74.0752 326.429 74.3062C324.799 75.8367 324.299 77.9731 325.273 79.5351Z" fill="white"/>
<path d="M315.359 89.1788C315.364 89.68 315.581 90.1592 315.964 90.5122C316.347 90.8651 316.865 91.0634 317.404 91.0634H338.148C337.144 89.4896 337.644 87.365 339.291 85.8384H319.817C318.913 85.8384 318.028 86.0835 317.271 86.5431C316.514 87.003 315.917 87.6577 315.554 88.4273C315.436 88.663 315.37 88.9187 315.359 89.1788Z" fill="#989898"/>
<path d="M338.139 91.0634H347.875C348.778 91.0642 349.662 90.821 350.419 90.3635C351.176 89.9059 351.773 89.2535 352.138 88.4863C352.255 88.2463 352.317 87.9862 352.32 87.723C352.321 87.4751 352.269 87.23 352.167 87.001C352.066 86.7721 351.916 86.5643 351.728 86.3892C351.539 86.2141 351.315 86.0752 351.069 85.9808C350.823 85.886 350.559 85.8376 350.293 85.8384H339.282C337.631 87.365 337.135 89.5014 338.139 91.0634Z" fill="#E4E4E4"/>
<path d="M338.139 91.0634C338.182 91.1665 338.242 91.2633 338.316 91.3506C339.718 93.1526 342.774 93.3179 345.149 91.7086C345.437 91.5143 345.707 91.2987 345.958 91.0634C347.587 89.5368 348.074 87.4004 347.113 85.8384C347.059 85.7372 346.995 85.6412 346.923 85.5511C345.509 83.7609 342.452 83.5839 340.077 85.2049C339.794 85.3957 339.528 85.6074 339.282 85.8384C337.631 87.3649 337.135 89.5014 338.139 91.0634Z" fill="white"/>
<path d="M331.234 102.513H343.651C344.554 102.513 345.438 102.269 346.195 101.811C346.952 101.353 347.549 100.7 347.914 99.9316C348.031 99.6956 348.093 99.4394 348.096 99.1801C348.094 98.6769 347.878 98.1953 347.494 97.84C347.111 97.4847 346.592 97.2845 346.051 97.2837H332.39C333.364 98.8457 332.864 100.982 331.234 102.513Z" fill="#989898"/>
<path d="M311.105 100.636C311.108 101.135 311.323 101.613 311.704 101.965C312.085 102.317 312.6 102.513 313.137 102.513H331.231C332.861 100.982 333.348 98.8457 332.387 97.2837H315.551C314.646 97.2837 313.761 97.5288 313.005 97.9884C312.247 98.4483 311.651 99.103 311.288 99.8726C311.172 100.113 311.109 100.372 311.105 100.636Z" fill="#E4E4E4"/>
<path d="M323.399 102.513C323.455 102.612 323.52 102.707 323.593 102.796C324.99 104.598 328.047 104.763 330.426 103.154C330.711 102.958 330.981 102.744 331.235 102.513C332.864 100.982 333.351 98.846 332.39 97.284C332.335 97.1829 332.27 97.0869 332.196 96.9968C330.786 95.2066 327.729 95.0531 325.35 96.6505C325.069 96.8433 324.803 97.055 324.554 97.284C322.912 98.8106 322.395 100.959 323.399 102.513Z" fill="white"/>
<path d="M250.961 156.514H263.377C264.281 156.515 265.165 156.271 265.922 155.812C266.679 155.354 267.276 154.701 267.64 153.933C267.782 153.646 267.843 153.33 267.818 153.015C267.792 152.699 267.682 152.396 267.496 152.131C267.31 151.866 267.055 151.65 266.754 151.502C266.453 151.354 266.118 151.279 265.778 151.285H252.121C253.09 152.847 252.591 154.983 250.961 156.514Z" fill="#989898"/>
<path d="M201.664 154.637C201.665 154.884 201.718 155.128 201.82 155.356C201.922 155.584 202.072 155.791 202.26 155.966C202.448 156.14 202.672 156.278 202.917 156.372C203.163 156.466 203.426 156.514 203.692 156.514H250.958C252.587 154.983 253.074 152.847 252.113 151.285H206.109C205.205 151.285 204.32 151.53 203.563 151.989C202.806 152.449 202.21 153.104 201.846 153.874C201.73 154.114 201.668 154.373 201.664 154.637Z" fill="#E4E4E4"/>
<path d="M243.122 156.514C243.177 156.613 243.243 156.708 243.316 156.797C244.713 158.603 247.77 158.764 250.149 157.155C250.434 156.959 250.704 156.745 250.958 156.514C252.587 154.983 253.074 152.847 252.113 151.285C252.058 151.184 251.993 151.088 251.919 150.998C250.505 149.208 247.448 149.054 245.073 150.652C244.792 150.844 244.526 151.056 244.277 151.285C242.635 152.812 242.135 154.96 243.122 156.514Z" fill="white"/>
<path d="M20.6363 213.186C19.0598 212.608 17.5352 211.915 16.0769 211.113C6.28508 205.663 -0.0946344 193.443 1.84849 182.922C2.81794 177.701 6.47558 174.062 11.1831 171.315C14.4724 169.419 18.0116 167.869 20.9495 165.528C30.7285 157.765 22.9052 145.69 28.3197 136.412C34.9026 125.16 45.4861 118.561 59.4309 118.99C66.1239 119.195 74.815 120.623 80.2803 116.071C83.1505 113.71 83.7517 109.862 84.8397 106.652C86.0661 103.031 87.0893 99.3539 87.9046 95.635C88.6379 92.1093 90.0179 88.7276 91.9856 85.6374C94.115 82.2852 97.1186 79.4858 100.719 77.4969C107.493 73.8654 116.937 73.5309 123.744 77.2648C124.714 77.8003 125.632 78.4125 126.488 79.0943C132.787 84.1148 135.801 92.57 135.657 100.109" stroke="black" stroke-width="2" stroke-miterlimit="10"/>
<path d="M122.868 90.8823C123.219 93.1014 124.671 95.1473 127.249 95.7611C130.162 96.4496 131.707 99.0858 132.528 101.734C133.696 105.619 133.397 109.757 131.682 113.462C130.09 116.948 127.254 120.938 122.457 121.564C113.681 122.744 109.312 119.289 109.312 119.289" stroke="black" stroke-width="2" stroke-miterlimit="10"/>
<path d="M115.554 102.737C116.386 102.737 117.061 102.11 117.061 101.336C117.061 100.563 116.386 99.9355 115.554 99.9355C114.721 99.9355 114.047 100.563 114.047 101.336C114.047 102.11 114.721 102.737 115.554 102.737Z" fill="black"/>
<path d="M128.808 101.809C129.64 101.809 130.315 101.182 130.315 100.408C130.315 99.6345 129.64 99.0073 128.808 99.0073C127.976 99.0073 127.301 99.6345 127.301 100.408C127.301 101.182 127.976 101.809 128.808 101.809Z" fill="black"/>
<path d="M112.054 206.132C114.247 207.383 112.477 209.445 110.885 210.141C108.15 211.321 104.616 211.53 101.635 211.861C78.974 214.339 71.4089 243.25 57.1847 248.625C42.9606 253.999 4.788 257.926 23.4066 197.814C37.7408 151.552 72.3022 138.934 86.7507 133.953C88.3061 133.422 89.8242 132.802 91.2974 132.096C99.6244 128.075 103.523 123.771 104.747 118.219C104.747 118.219 104.747 118.219 104.747 118.196C105.805 113.431 105.094 109.056 104.057 106.526C103.462 105.19 103 103.806 102.677 102.391C101.906 98.3658 105.251 98.9323 114.64 99.4123C118.95 99.6484 121.388 97.8385 122.438 95.5329C122.541 95.333 122.625 95.1249 122.688 94.9113C123.129 93.6058 123.182 92.2134 122.84 90.8823" stroke="black" stroke-width="2" stroke-miterlimit="10"/>
<path d="M122.047 101.675C122.047 101.675 123.631 107.053 123.47 107.848C123.309 108.643 121.281 108.029 121.281 108.029" stroke="black" stroke-width="2" stroke-miterlimit="10"/>
<path d="M120.955 112.955C117.92 114.474 114.411 113.518 113.039 110.988" stroke="black" stroke-width="2" stroke-miterlimit="10"/>
<path d="M117.974 107.06C120.802 104.579 120.982 100.489 118.377 97.9248C115.772 95.3603 111.369 95.2923 108.541 97.773C105.714 100.254 105.534 104.344 108.138 106.908C110.743 109.473 115.147 109.541 117.974 107.06Z" stroke="black" stroke-width="2" stroke-miterlimit="10"/>
<path d="M135.556 105.568C138.384 103.087 138.564 98.9972 135.959 96.4327C133.354 93.8681 128.951 93.8001 126.123 96.2808C123.296 98.7615 123.116 102.851 125.72 105.416C128.325 107.98 132.729 108.049 135.556 105.568Z" stroke="black" stroke-width="2" stroke-miterlimit="10"/>
<path d="M130.985 96.4381C132.175 96.431 133.322 96.8473 134.192 97.6015C135.062 98.3558 135.588 99.391 135.663 100.495C135.739 101.697 135.31 102.879 134.466 103.793C133.623 104.706 132.431 105.28 131.141 105.393C130.993 105.393 130.841 105.393 130.693 105.393C129.51 105.401 128.368 104.99 127.499 104.244C126.631 103.498 126.1 102.472 126.015 101.376C125.933 100.171 126.36 98.9837 127.203 98.0658C128.048 97.1475 129.243 96.5711 130.536 96.4578C130.684 96.4578 130.837 96.4578 130.985 96.4578V96.4381ZM130.985 95.5096C130.807 95.5096 130.625 95.5096 130.443 95.5332C128.89 95.6705 127.454 96.3618 126.438 97.4627C125.422 98.5631 124.904 99.987 124.994 101.435C125.089 102.777 125.732 104.036 126.791 104.954C127.849 105.871 129.245 106.379 130.693 106.373C130.87 106.373 131.052 106.373 131.234 106.349C132.789 106.214 134.225 105.523 135.241 104.422C136.257 103.32 136.772 101.895 136.679 100.447C136.594 99.099 135.957 97.8317 134.898 96.9067C133.839 95.9817 132.438 95.469 130.985 95.4742V95.5096Z" fill="white"/>
<path d="M120.199 101.832L123.891 101.517" stroke="black" stroke-width="2" stroke-miterlimit="10"/>
<path d="M113.406 97.8033C114.632 97.7923 115.816 98.2192 116.712 98.9963C117.609 99.773 118.15 100.84 118.224 101.978C118.303 103.216 117.862 104.435 116.993 105.376C116.125 106.318 114.896 106.91 113.567 107.026C113.415 107.026 113.258 107.026 113.106 107.026C111.879 107.036 110.695 106.608 109.798 105.831C108.901 105.053 108.358 103.985 108.284 102.847C108.206 101.61 108.647 100.392 109.516 99.4511C110.385 98.5103 111.613 97.9194 112.941 97.8033C113.095 97.7888 113.251 97.7825 113.406 97.7837V97.8033ZM113.406 96.8354C113.22 96.8354 113.034 96.8433 112.848 96.8591C111.246 96.9972 109.767 97.7116 108.725 98.8495C107.682 99.9874 107.16 101.458 107.268 102.95C107.365 104.325 108.023 105.615 109.108 106.555C110.192 107.495 111.622 108.015 113.106 108.009C113.288 108.009 113.474 108.009 113.66 107.986C115.254 107.847 116.727 107.137 117.768 106.007C118.809 104.877 119.337 103.415 119.24 101.931C119.144 100.555 118.487 99.2658 117.403 98.3254C116.318 97.3851 114.889 96.8649 113.406 96.8708V96.8354Z" fill="white"/>
<path d="M134.891 104.91C137.315 102.783 137.468 99.2743 135.232 97.0734C132.997 94.872 129.219 94.8122 126.794 96.9392C124.37 99.0662 124.217 102.575 126.453 104.776C128.688 106.977 132.466 107.037 134.891 104.91Z" fill="#989898"/>
<path d="M118.573 106.632C121.019 104.483 121.172 100.942 118.915 98.7232C116.658 96.5038 112.846 96.4467 110.4 98.5953C107.955 100.744 107.801 104.285 110.058 106.504C112.315 108.723 116.128 108.78 118.573 106.632Z" fill="#989898"/>
<path d="M98.3315 139.115C96.4688 137.309 94.8516 134.654 93.7891 130.81" stroke="black" stroke-width="2" stroke-miterlimit="10"/>
<path d="M115.551 139.068L117.604 130.81L119.835 121.91" stroke="black" stroke-width="2" stroke-miterlimit="10"/>
<path d="M123.945 171.952C124.734 168.353 122.599 164.911 119.177 164.262C115.754 163.614 112.34 166.006 111.551 169.604C110.762 173.202 112.896 176.645 116.319 177.293C119.742 177.941 123.156 175.55 123.945 171.952Z" fill="#E4E4E4"/>
<path d="M254.901 230.499L251.43 248.526C251.332 249.032 251.046 249.491 250.622 249.821C250.198 250.151 249.663 250.332 249.11 250.332H230.953C230.394 250.333 229.853 250.149 229.426 249.813C229 249.477 228.716 249.011 228.624 248.499L225.449 230.499H254.901Z" stroke="#D7D7D7" stroke-width="2" stroke-miterlimit="10"/>
<path d="M258.201 228.484C258.152 229.032 257.884 229.543 257.449 229.916C257.013 230.29 256.444 230.497 255.851 230.498H224.524C223.941 230.498 223.377 230.297 222.943 229.934C222.509 229.57 222.236 229.071 222.175 228.531C222.143 228.227 222.181 227.92 222.285 227.63C222.389 227.34 222.557 227.074 222.778 226.848C222.999 226.621 223.269 226.441 223.57 226.318C223.871 226.194 224.196 226.13 224.524 226.131H255.851C256.176 226.131 256.496 226.193 256.793 226.314C257.09 226.435 257.357 226.611 257.578 226.832C257.798 227.052 257.967 227.313 258.075 227.597C258.182 227.882 258.225 228.183 258.201 228.484Z" stroke="#D7D7D7" stroke-width="2" stroke-miterlimit="10"/>
<path d="M241.175 226.1C241.175 225.175 243.715 213.659 241.598 203.449C240.447 197.846 237.907 192.641 232.793 189.788" stroke="#D7D7D7" stroke-width="2" stroke-miterlimit="10"/>
<path d="M241.609 203.464C241.609 203.464 242.189 195.706 249.403 195.17" stroke="#D7D7D7" stroke-width="2" stroke-miterlimit="10"/>
<path d="M242.383 215.303C244.435 213.966 246.907 213.302 249.41 213.414" stroke="#D7D7D7" stroke-width="2" stroke-miterlimit="10"/>
<path d="M242.384 209.791C242.384 209.791 237.143 204.023 228.77 208.587" stroke="#D7D7D7" stroke-width="2" stroke-miterlimit="10"/>
<path d="M238.688 207.47C238.688 207.47 226.886 197.452 224.574 211.011C224.574 211.011 227.897 213.021 232.804 211.011C237.71 209 238.688 207.47 238.688 207.47Z" stroke="#D7D7D7" stroke-width="2" stroke-miterlimit="10"/>
<path d="M244.199 197.531C244.199 197.531 243.775 193.022 249.397 191.547C255.019 190.071 258.207 196.244 258.207 196.244C258.207 196.244 253.868 200.702 244.199 197.531Z" stroke="#D7D7D7" stroke-width="2" stroke-miterlimit="10"/>
<path d="M245.505 213.411C245.505 213.411 245.31 208.85 251.855 209.791C258.399 210.731 259.475 215.921 259.475 215.921C259.475 215.921 248.756 219.572 245.505 213.891" stroke="#D7D7D7" stroke-width="2" stroke-miterlimit="10"/>
<path d="M237.616 194.022C237.616 194.344 232.697 193.628 232.383 193.526C230 192.865 228.307 191.33 227.193 189.3C226.85 188.671 224.865 185.141 225.428 184.528C225.445 184.528 237.138 181.026 237.616 194.022Z" stroke="#D7D7D7" stroke-width="2" stroke-miterlimit="10"/>
<path d="M353.025 195.245C349.334 205.477 343.222 214.81 335.139 222.558C319.852 237.423 296.878 248.07 267.828 250.56V195.245H353.025Z" stroke="#D7D7D7" stroke-width="2" stroke-miterlimit="10"/>
<path d="M335.139 222.559C319.852 237.423 296.878 248.07 267.828 250.56V222.559H335.139Z" stroke="#D7D7D7" stroke-width="2" stroke-miterlimit="10"/>
<path d="M326.297 209.446C326.297 207.24 324.373 205.451 321.998 205.451C319.624 205.451 317.699 207.24 317.699 209.446C317.699 211.653 319.624 213.442 321.998 213.442C324.373 213.442 326.297 211.653 326.297 209.446Z" stroke="#D7D7D7" stroke-width="2" stroke-miterlimit="10"/>
</svg>
